<?xml version="1.0" encoding="utf-8" standalone="no"?>
<!DOCTYPE svg PUBLIC "-//W3C//DTD SVG 1.1//EN"
  "http://www.w3.org/Graphics/SVG/1.1/DTD/svg11.dtd">
<svg xmlns:xlink="http://www.w3.org/1999/xlink" width="460.8pt" height="345.6pt" viewBox="0 0 460.8 345.6" xmlns="http://www.w3.org/2000/svg" version="1.1">
 <metadata>
  <rdf:RDF xmlns:dc="http://purl.org/dc/elements/1.1/" xmlns:cc="http://creativecommons.org/ns#" xmlns:rdf="http://www.w3.org/1999/02/22-rdf-syntax-ns#">
   <cc:Work>
    <dc:type rdf:resource="http://purl.org/dc/dcmitype/StillImage"/>
    <dc:date>2024-12-11T17:18:17.750749</dc:date>
    <dc:format>image/svg+xml</dc:format>
    <dc:creator>
     <cc:Agent>
      <dc:title>Matplotlib v3.9.2, https://matplotlib.org/</dc:title>
     </cc:Agent>
    </dc:creator>
   </cc:Work>
  </rdf:RDF>
 </metadata>
 <defs>
  <style type="text/css">*{stroke-linejoin: round; stroke-linecap: butt}</style>
 </defs>
 <g id="figure_1">
  <g id="patch_1">
   <path d="M 0 345.6 
L 460.8 345.6 
L 460.8 0 
L 0 0 
z
" style="fill: #ffffff"/>
  </g>
  <g id="axes_1">
   <g id="patch_2">
    <path d="M 57.6 307.584 
L 414.72 307.584 
L 414.72 41.472 
L 57.6 41.472 
z
" style="fill: #ffffff"/>
   </g>
   <g id="matplotlib.axis_1">
    <g id="xtick_1">
     <g id="line2d_1">
      <defs>
       <path id="m6caf613103" d="M 0 0 
L 0 3.5 
" style="stroke: #000000; stroke-width: 0.8"/>
      </defs>
      <g>
       <use xlink:href="#m6caf613103" x="73.832727" y="307.584" style="stroke: #000000; stroke-width: 0.8"/>
      </g>
     </g>
     <g id="text_1">
      <!-- 0 -->
      <g transform="translate(70.651477 322.182437) scale(0.1 -0.1)">
       <defs>
        <path id="DejaVuSans-30" d="M 2034 4250 
Q 1547 4250 1301 3770 
Q 1056 3291 1056 2328 
Q 1056 1369 1301 889 
Q 1547 409 2034 409 
Q 2525 409 2770 889 
Q 3016 1369 3016 2328 
Q 3016 3291 2770 3770 
Q 2525 4250 2034 4250 
z
M 2034 4750 
Q 2819 4750 3233 4129 
Q 3647 3509 3647 2328 
Q 3647 1150 3233 529 
Q 2819 -91 2034 -91 
Q 1250 -91 836 529 
Q 422 1150 422 2328 
Q 422 3509 836 4129 
Q 1250 4750 2034 4750 
z
" transform="scale(0.015625)"/>
       </defs>
       <use xlink:href="#DejaVuSans-30"/>
      </g>
     </g>
    </g>
    <g id="xtick_2">
     <g id="line2d_2">
      <g>
       <use xlink:href="#m6caf613103" x="120.211948" y="307.584" style="stroke: #000000; stroke-width: 0.8"/>
      </g>
     </g>
     <g id="text_2">
      <!-- 1 -->
      <g transform="translate(117.030698 322.182437) scale(0.1 -0.1)">
       <defs>
        <path id="DejaVuSans-31" d="M 794 531 
L 1825 531 
L 1825 4091 
L 703 3866 
L 703 4441 
L 1819 4666 
L 2450 4666 
L 2450 531 
L 3481 531 
L 3481 0 
L 794 0 
L 794 531 
z
" transform="scale(0.015625)"/>
       </defs>
       <use xlink:href="#DejaVuSans-31"/>
      </g>
     </g>
    </g>
    <g id="xtick_3">
     <g id="line2d_3">
      <g>
       <use xlink:href="#m6caf613103" x="166.591169" y="307.584" style="stroke: #000000; stroke-width: 0.8"/>
      </g>
     </g>
     <g id="text_3">
      <!-- 2 -->
      <g transform="translate(163.409919 322.182437) scale(0.1 -0.1)">
       <defs>
        <path id="DejaVuSans-32" d="M 1228 531 
L 3431 531 
L 3431 0 
L 469 0 
L 469 531 
Q 828 903 1448 1529 
Q 2069 2156 2228 2338 
Q 2531 2678 2651 2914 
Q 2772 3150 2772 3378 
Q 2772 3750 2511 3984 
Q 2250 4219 1831 4219 
Q 1534 4219 1204 4116 
Q 875 4013 500 3803 
L 500 4441 
Q 881 4594 1212 4672 
Q 1544 4750 1819 4750 
Q 2544 4750 2975 4387 
Q 3406 4025 3406 3419 
Q 3406 3131 3298 2873 
Q 3191 2616 2906 2266 
Q 2828 2175 2409 1742 
Q 1991 1309 1228 531 
z
" transform="scale(0.015625)"/>
       </defs>
       <use xlink:href="#DejaVuSans-32"/>
      </g>
     </g>
    </g>
    <g id="xtick_4">
     <g id="line2d_4">
      <g>
       <use xlink:href="#m6caf613103" x="212.97039" y="307.584" style="stroke: #000000; stroke-width: 0.8"/>
      </g>
     </g>
     <g id="text_4">
      <!-- 3 -->
      <g transform="translate(209.78914 322.182437) scale(0.1 -0.1)">
       <defs>
        <path id="DejaVuSans-33" d="M 2597 2516 
Q 3050 2419 3304 2112 
Q 3559 1806 3559 1356 
Q 3559 666 3084 287 
Q 2609 -91 1734 -91 
Q 1441 -91 1130 -33 
Q 819 25 488 141 
L 488 750 
Q 750 597 1062 519 
Q 1375 441 1716 441 
Q 2309 441 2620 675 
Q 2931 909 2931 1356 
Q 2931 1769 2642 2001 
Q 2353 2234 1838 2234 
L 1294 2234 
L 1294 2753 
L 1863 2753 
Q 2328 2753 2575 2939 
Q 2822 3125 2822 3475 
Q 2822 3834 2567 4026 
Q 2313 4219 1838 4219 
Q 1578 4219 1281 4162 
Q 984 4106 628 3988 
L 628 4550 
Q 988 4650 1302 4700 
Q 1616 4750 1894 4750 
Q 2613 4750 3031 4423 
Q 3450 4097 3450 3541 
Q 3450 3153 3228 2886 
Q 3006 2619 2597 2516 
z
" transform="scale(0.015625)"/>
       </defs>
       <use xlink:href="#DejaVuSans-33"/>
      </g>
     </g>
    </g>
    <g id="xtick_5">
     <g id="line2d_5">
      <g>
       <use xlink:href="#m6caf613103" x="259.34961" y="307.584" style="stroke: #000000; stroke-width: 0.8"/>
      </g>
     </g>
     <g id="text_5">
      <!-- 4 -->
      <g transform="translate(256.16836 322.182437) scale(0.1 -0.1)">
       <defs>
        <path id="DejaVuSans-34" d="M 2419 4116 
L 825 1625 
L 2419 1625 
L 2419 4116 
z
M 2253 4666 
L 3047 4666 
L 3047 1625 
L 3713 1625 
L 3713 1100 
L 3047 1100 
L 3047 0 
L 2419 0 
L 2419 1100 
L 313 1100 
L 313 1709 
L 2253 4666 
z
" transform="scale(0.015625)"/>
       </defs>
       <use xlink:href="#DejaVuSans-34"/>
      </g>
     </g>
    </g>
    <g id="xtick_6">
     <g id="line2d_6">
      <g>
       <use xlink:href="#m6caf613103" x="305.728831" y="307.584" style="stroke: #000000; stroke-width: 0.8"/>
      </g>
     </g>
     <g id="text_6">
      <!-- 5 -->
      <g transform="translate(302.547581 322.182437) scale(0.1 -0.1)">
       <defs>
        <path id="DejaVuSans-35" d="M 691 4666 
L 3169 4666 
L 3169 4134 
L 1269 4134 
L 1269 2991 
Q 1406 3038 1543 3061 
Q 1681 3084 1819 3084 
Q 2600 3084 3056 2656 
Q 3513 2228 3513 1497 
Q 3513 744 3044 326 
Q 2575 -91 1722 -91 
Q 1428 -91 1123 -41 
Q 819 9 494 109 
L 494 744 
Q 775 591 1075 516 
Q 1375 441 1709 441 
Q 2250 441 2565 725 
Q 2881 1009 2881 1497 
Q 2881 1984 2565 2268 
Q 2250 2553 1709 2553 
Q 1456 2553 1204 2497 
Q 953 2441 691 2322 
L 691 4666 
z
" transform="scale(0.015625)"/>
       </defs>
       <use xlink:href="#DejaVuSans-35"/>
      </g>
     </g>
    </g>
    <g id="xtick_7">
     <g id="line2d_7">
      <g>
       <use xlink:href="#m6caf613103" x="352.108052" y="307.584" style="stroke: #000000; stroke-width: 0.8"/>
      </g>
     </g>
     <g id="text_7">
      <!-- 6 -->
      <g transform="translate(348.926802 322.182437) scale(0.1 -0.1)">
       <defs>
        <path id="DejaVuSans-36" d="M 2113 2584 
Q 1688 2584 1439 2293 
Q 1191 2003 1191 1497 
Q 1191 994 1439 701 
Q 1688 409 2113 409 
Q 2538 409 2786 701 
Q 3034 994 3034 1497 
Q 3034 2003 2786 2293 
Q 2538 2584 2113 2584 
z
M 3366 4563 
L 3366 3988 
Q 3128 4100 2886 4159 
Q 2644 4219 2406 4219 
Q 1781 4219 1451 3797 
Q 1122 3375 1075 2522 
Q 1259 2794 1537 2939 
Q 1816 3084 2150 3084 
Q 2853 3084 3261 2657 
Q 3669 2231 3669 1497 
Q 3669 778 3244 343 
Q 2819 -91 2113 -91 
Q 1303 -91 875 529 
Q 447 1150 447 2328 
Q 447 3434 972 4092 
Q 1497 4750 2381 4750 
Q 2619 4750 2861 4703 
Q 3103 4656 3366 4563 
z
" transform="scale(0.015625)"/>
       </defs>
       <use xlink:href="#DejaVuSans-36"/>
      </g>
     </g>
    </g>
    <g id="xtick_8">
     <g id="line2d_8">
      <g>
       <use xlink:href="#m6caf613103" x="398.487273" y="307.584" style="stroke: #000000; stroke-width: 0.8"/>
      </g>
     </g>
     <g id="text_8">
      <!-- 7 -->
      <g transform="translate(395.306023 322.182437) scale(0.1 -0.1)">
       <defs>
        <path id="DejaVuSans-37" d="M 525 4666 
L 3525 4666 
L 3525 4397 
L 1831 0 
L 1172 0 
L 2766 4134 
L 525 4134 
L 525 4666 
z
" transform="scale(0.015625)"/>
       </defs>
       <use xlink:href="#DejaVuSans-37"/>
      </g>
     </g>
    </g>
   </g>
   <g id="matplotlib.axis_2">
    <g id="ytick_1">
     <g id="line2d_9">
      <defs>
       <path id="mbf01ee9709" d="M 0 0 
L -3.5 0 
" style="stroke: #000000; stroke-width: 0.8"/>
      </defs>
      <g>
       <use xlink:href="#mbf01ee9709" x="57.6" y="301.776235" style="stroke: #000000; stroke-width: 0.8"/>
      </g>
     </g>
     <g id="text_9">
      <!-- −3 -->
      <g transform="translate(35.857813 305.575454) scale(0.1 -0.1)">
       <defs>
        <path id="DejaVuSans-2212" d="M 678 2272 
L 4684 2272 
L 4684 1741 
L 678 1741 
L 678 2272 
z
" transform="scale(0.015625)"/>
       </defs>
       <use xlink:href="#DejaVuSans-2212"/>
       <use xlink:href="#DejaVuSans-33" x="83.789062"/>
      </g>
     </g>
    </g>
    <g id="ytick_2">
     <g id="line2d_10">
      <g>
       <use xlink:href="#mbf01ee9709" x="57.6" y="265.673219" style="stroke: #000000; stroke-width: 0.8"/>
      </g>
     </g>
     <g id="text_10">
      <!-- −2 -->
      <g transform="translate(35.857813 269.472438) scale(0.1 -0.1)">
       <use xlink:href="#DejaVuSans-2212"/>
       <use xlink:href="#DejaVuSans-32" x="83.789062"/>
      </g>
     </g>
    </g>
    <g id="ytick_3">
     <g id="line2d_11">
      <g>
       <use xlink:href="#mbf01ee9709" x="57.6" y="229.570203" style="stroke: #000000; stroke-width: 0.8"/>
      </g>
     </g>
     <g id="text_11">
      <!-- −1 -->
      <g transform="translate(35.857813 233.369422) scale(0.1 -0.1)">
       <use xlink:href="#DejaVuSans-2212"/>
       <use xlink:href="#DejaVuSans-31" x="83.789062"/>
      </g>
     </g>
    </g>
    <g id="ytick_4">
     <g id="line2d_12">
      <g>
       <use xlink:href="#mbf01ee9709" x="57.6" y="193.467187" style="stroke: #000000; stroke-width: 0.8"/>
      </g>
     </g>
     <g id="text_12">
      <!-- 0 -->
      <g transform="translate(44.2375 197.266406) scale(0.1 -0.1)">
       <use xlink:href="#DejaVuSans-30"/>
      </g>
     </g>
    </g>
    <g id="ytick_5">
     <g id="line2d_13">
      <g>
       <use xlink:href="#mbf01ee9709" x="57.6" y="157.364171" style="stroke: #000000; stroke-width: 0.8"/>
      </g>
     </g>
     <g id="text_13">
      <!-- 1 -->
      <g transform="translate(44.2375 161.16339) scale(0.1 -0.1)">
       <use xlink:href="#DejaVuSans-31"/>
      </g>
     </g>
    </g>
    <g id="ytick_6">
     <g id="line2d_14">
      <g>
       <use xlink:href="#mbf01ee9709" x="57.6" y="121.261155" style="stroke: #000000; stroke-width: 0.8"/>
      </g>
     </g>
     <g id="text_14">
      <!-- 2 -->
      <g transform="translate(44.2375 125.060374) scale(0.1 -0.1)">
       <use xlink:href="#DejaVuSans-32"/>
      </g>
     </g>
    </g>
    <g id="ytick_7">
     <g id="line2d_15">
      <g>
       <use xlink:href="#mbf01ee9709" x="57.6" y="85.158139" style="stroke: #000000; stroke-width: 0.8"/>
      </g>
     </g>
     <g id="text_15">
      <!-- 3 -->
      <g transform="translate(44.2375 88.957358) scale(0.1 -0.1)">
       <use xlink:href="#DejaVuSans-33"/>
      </g>
     </g>
    </g>
    <g id="ytick_8">
     <g id="line2d_16">
      <g>
       <use xlink:href="#mbf01ee9709" x="57.6" y="49.055123" style="stroke: #000000; stroke-width: 0.8"/>
      </g>
     </g>
     <g id="text_16">
      <!-- 4 -->
      <g transform="translate(44.2375 52.854342) scale(0.1 -0.1)">
       <use xlink:href="#DejaVuSans-34"/>
      </g>
     </g>
    </g>
   </g>
   <g id="line2d_17">
    <path d="M 73.832727 53.568 
L 398.487273 53.568 
L 398.487273 53.568 
" clip-path="url(#p005805a5c6)" style="fill: none; stroke: #1f77b4; stroke-width: 1.5; stroke-linecap: square"/>
   </g>
   <g id="line2d_18">
    <path d="M 73.832727 211.236863 
L 87.156888 210.725978 
L 100.806028 209.975179 
L 114.780147 208.978438 
L 129.079247 207.734121 
L 144.028305 206.210243 
L 159.952301 204.363358 
L 177.501196 202.100362 
L 197.649926 199.270728 
L 223.973268 195.333388 
L 279.869746 186.913883 
L 300.343456 184.098616 
L 317.892351 181.906067 
L 333.816347 180.135835 
L 348.765405 178.693665 
L 363.064505 177.535106 
L 377.038624 176.628136 
L 390.362785 175.982498 
L 398.487273 175.697511 
L 398.487273 175.697511 
" clip-path="url(#p005805a5c6)" style="fill: none; stroke: #ff7f0e; stroke-width: 1.5; stroke-linecap: square"/>
   </g>
   <g id="line2d_19">
    <path d="M 73.832727 295.488 
L 76.757543 293.270701 
L 80.007338 290.520197 
L 83.257133 287.475831 
L 86.831908 283.798644 
L 90.406683 279.790526 
L 94.306437 275.057895 
L 98.206192 269.969559 
L 102.430925 264.081556 
L 106.980639 257.337504 
L 111.855332 249.692315 
L 117.055004 241.116708 
L 122.904636 231.031263 
L 129.729206 218.806567 
L 138.828632 202.009981 
L 158.652383 165.264234 
L 165.801933 152.576038 
L 171.651564 142.631965 
L 176.851237 134.208292 
L 181.72593 126.726917 
L 186.275643 120.153416 
L 190.500377 114.438146 
L 194.400131 109.52075 
L 198.299885 104.96933 
L 201.87466 101.135671 
L 205.449435 97.640269 
L 208.69923 94.76696 
L 211.949025 92.192501 
L 214.873841 90.137467 
L 217.798657 88.335867 
L 220.723473 86.792121 
L 223.648288 85.510015 
L 226.573104 84.492694 
L 229.17294 83.812728 
L 231.772776 83.345273 
L 234.372613 83.091235 
L 236.972449 83.051106 
L 239.572285 83.224964 
L 242.172121 83.612471 
L 244.771957 84.212878 
L 247.371794 85.02502 
L 250.296609 86.189793 
L 253.221425 87.617684 
L 256.146241 89.30519 
L 259.071057 91.248173 
L 261.995872 93.441865 
L 265.245667 96.166781 
L 268.495463 99.186308 
L 272.070238 102.837126 
L 275.645012 106.819969 
L 279.544767 111.526384 
L 283.444521 116.59003 
L 287.669255 122.453134 
L 292.218968 129.172661 
L 297.093661 136.794368 
L 302.293333 145.348295 
L 308.142965 155.413702 
L 314.967535 167.621097 
L 324.066962 184.405158 
L 344.540672 222.341069 
L 351.365242 234.438967 
L 357.214873 244.379463 
L 362.414545 252.79932 
L 367.289238 260.276602 
L 371.838952 266.845857 
L 376.063686 272.556839 
L 379.96344 277.470001 
L 383.863194 282.016941 
L 387.437969 285.846295 
L 391.012744 289.337217 
L 394.262539 292.206316 
L 397.512334 294.776447 
L 398.487273 295.488 
L 398.487273 295.488 
" clip-path="url(#p005805a5c6)" style="fill: none; stroke: #2ca02c; stroke-width: 1.5; stroke-linecap: square"/>
   </g>
   <g id="line2d_20">
    <path d="M 73.832727 194.07363 
L 100.156069 193.691836 
L 156.052547 192.814955 
L 178.151155 192.741274 
L 200.574742 192.894087 
L 228.522981 193.326583 
L 276.619951 194.091619 
L 299.043538 194.196293 
L 321.142146 194.074107 
L 347.465487 193.692654 
L 398.487273 192.860744 
L 398.487273 192.860744 
" clip-path="url(#p005805a5c6)" style="fill: none; stroke: #d62728; stroke-width: 1.5; stroke-linecap: square"/>
   </g>
   <g id="line2d_21">
    <path d="M 73.832727 170.902802 
L 77.082523 173.517898 
L 80.657297 176.672049 
L 84.882031 180.712859 
L 89.756724 185.693709 
L 97.231253 193.692976 
L 106.0057 203.027071 
L 110.880393 207.90074 
L 115.105127 211.811583 
L 118.679902 214.830904 
L 121.929697 217.305399 
L 125.179492 219.491398 
L 128.104308 221.19019 
L 131.029124 222.617166 
L 133.62896 223.646026 
L 136.228796 224.441051 
L 138.828632 224.996083 
L 141.428468 225.306821 
L 144.028305 225.370857 
L 146.628141 225.187696 
L 149.227977 224.758755 
L 151.827813 224.087359 
L 154.427649 223.17871 
L 157.027486 222.039849 
L 159.952301 220.494508 
L 162.877117 218.684173 
L 166.126912 216.383563 
L 169.376708 213.805615 
L 172.951482 210.68687 
L 177.176216 206.679855 
L 182.050909 201.726325 
L 189.200459 194.094342 
L 198.949844 183.716009 
L 203.824537 178.854922 
L 208.049271 174.958931 
L 211.624046 171.954806 
L 214.873841 169.496021 
L 218.123636 167.327341 
L 221.048452 165.64534 
L 223.973268 164.236123 
L 226.573104 163.223723 
L 229.17294 162.445657 
L 231.772776 161.907954 
L 234.372613 161.614781 
L 236.972449 161.568408 
L 239.572285 161.769195 
L 242.172121 162.215586 
L 244.771957 162.904123 
L 247.371794 163.829471 
L 249.97163 164.984459 
L 252.896446 166.547104 
L 255.821261 168.373692 
L 259.071057 170.690932 
L 262.320852 173.283817 
L 265.895627 176.416817 
L 270.12036 180.437469 
L 274.995053 185.402075 
L 282.144603 193.040707 
L 291.569009 203.07493 
L 296.443702 207.945472 
L 300.668436 211.852616 
L 304.24321 214.868149 
L 307.493006 217.338726 
L 310.742801 219.520403 
L 313.667617 221.215004 
L 316.592432 222.637546 
L 319.192269 223.662294 
L 321.792105 224.453083 
L 324.391941 225.003784 
L 326.991777 225.310132 
L 329.591613 225.369753 
L 332.19145 225.182184 
L 334.791286 224.748879 
L 337.391122 224.073196 
L 339.990958 223.160369 
L 342.590794 222.017471 
L 345.51561 220.467799 
L 348.440426 218.653393 
L 351.690221 216.348618 
L 354.940016 213.766925 
L 358.514791 210.644606 
L 362.739525 206.634167 
L 367.614218 201.677849 
L 374.763767 194.044175 
L 384.513153 183.668246 
L 389.387846 178.810334 
L 393.61258 174.918079 
L 397.187355 171.917773 
L 398.487273 170.902802 
L 398.487273 170.902802 
" clip-path="url(#p005805a5c6)" style="fill: none; stroke: #9467bd; stroke-width: 1.5; stroke-linecap: square"/>
   </g>
   <g id="line2d_22">
    <path d="M 73.832727 195.504326 
L 82.607174 194.258707 
L 103.405864 191.210503 
L 110.555414 190.451619 
L 116.730025 190.014959 
L 122.579656 189.817356 
L 128.429287 189.842454 
L 134.278919 190.088721 
L 140.45353 190.57181 
L 147.2781 191.33285 
L 155.727568 192.511898 
L 178.801114 195.866369 
L 185.625684 196.556982 
L 191.800295 196.962276 
L 197.649926 197.12744 
L 203.499558 197.069268 
L 209.349189 196.791308 
L 215.5238 196.278398 
L 222.67335 195.448867 
L 231.772776 194.144326 
L 251.271548 191.278132 
L 258.421097 190.500806 
L 264.595708 190.044546 
L 270.44534 189.826497 
L 276.294971 189.830592 
L 282.144603 190.05658 
L 288.319214 190.520414 
L 295.143784 191.26428 
L 303.593251 192.430058 
L 327.641736 195.916115 
L 334.466306 196.592177 
L 340.640917 196.981753 
L 346.490549 197.130788 
L 352.34018 197.056282 
L 358.189812 196.76278 
L 364.364423 196.235372 
L 371.513972 195.39276 
L 380.613399 194.079057 
L 398.487273 191.430048 
L 398.487273 191.430048 
" clip-path="url(#p005805a5c6)" style="fill: none; stroke: #8c564b; stroke-width: 1.5; stroke-linecap: square"/>
   </g>
   <g id="line2d_23">
    <path d="M 73.832727 199.755422 
L 78.382441 196.110413 
L 90.406683 186.33015 
L 93.981458 183.774272 
L 97.231253 181.725381 
L 100.156069 180.152988 
L 102.755905 179.000697 
L 105.355741 178.100405 
L 107.630598 177.53181 
L 109.905455 177.175815 
L 112.180311 177.037168 
L 114.455168 177.11772 
L 116.730025 177.416396 
L 119.004881 177.929212 
L 121.279738 178.649325 
L 123.879574 179.713699 
L 126.47941 181.017652 
L 129.404226 182.742539 
L 132.654021 184.934449 
L 136.553776 187.865342 
L 141.753448 192.092969 
L 150.852875 199.539967 
L 154.752629 202.426417 
L 158.002424 204.568452 
L 160.92724 206.239649 
L 163.527076 207.489864 
L 166.126912 208.49581 
L 168.726749 209.239964 
L 171.001605 209.666042 
L 173.276462 209.876005 
L 175.551319 209.867052 
L 177.826175 209.639303 
L 180.101032 209.195796 
L 182.375889 208.542447 
L 184.975725 207.550121 
L 187.575561 206.312477 
L 190.500377 204.653894 
L 193.750172 202.523657 
L 197.324947 199.898362 
L 201.87466 196.263297 
L 214.223882 186.225602 
L 217.798657 183.680631 
L 221.048452 181.644339 
L 223.973268 180.085182 
L 226.573104 178.94592 
L 229.17294 178.059611 
L 231.447797 177.503842 
L 233.722654 177.161047 
L 235.99751 177.035797 
L 238.272367 177.129764 
L 240.547224 177.441695 
L 242.82208 177.967427 
L 245.096937 178.699947 
L 247.696773 179.777665 
L 250.296609 181.093847 
L 253.221425 182.830896 
L 256.47122 185.034024 
L 260.370975 187.974783 
L 265.570647 192.208862 
L 274.670074 199.647849 
L 278.569828 202.523657 
L 281.819623 204.653894 
L 284.744439 206.312477 
L 287.344275 207.550121 
L 289.944111 208.542447 
L 292.218968 209.195796 
L 294.493825 209.639303 
L 296.768681 209.867052 
L 299.043538 209.876005 
L 301.318395 209.666042 
L 303.593251 209.239964 
L 305.868108 208.603456 
L 308.467944 207.629367 
L 311.067781 206.408579 
L 313.992596 204.766945 
L 317.242391 202.652604 
L 320.817166 200.04073 
L 325.36688 196.415932 
L 338.041081 186.121417 
L 341.615856 183.587481 
L 344.865651 181.56389 
L 347.790467 180.018046 
L 350.390303 178.891869 
L 352.990139 178.019588 
L 355.264996 177.476674 
L 357.539853 177.147095 
L 359.814709 177.035248 
L 362.089566 177.142626 
L 364.364423 177.467796 
L 366.639279 178.006419 
L 368.914136 178.751309 
L 371.513972 179.842316 
L 374.113808 181.170662 
L 377.038624 182.919785 
L 380.288419 185.134022 
L 384.188174 188.0845 
L 389.712826 192.595595 
L 398.162293 199.503938 
L 398.487273 199.755422 
L 398.487273 199.755422 
" clip-path="url(#p005805a5c6)" style="fill: none; stroke: #e377c2; stroke-width: 1.5; stroke-linecap: square"/>
   </g>
   <g id="line2d_24">
    <path d="M 73.832727 191.105437 
L 85.53199 199.239873 
L 88.781785 201.170075 
L 91.706601 202.665496 
L 94.306437 203.764495 
L 96.906274 204.619474 
L 99.18113 205.151329 
L 101.455987 205.471096 
L 103.730844 205.572971 
L 106.0057 205.455104 
L 108.280557 205.119635 
L 110.555414 204.572654 
L 113.15525 203.701444 
L 115.755086 202.587708 
L 118.679902 201.077927 
L 121.929697 199.135024 
L 125.829451 196.533731 
L 140.12855 186.717771 
L 143.378346 184.918787 
L 146.303161 183.568364 
L 148.902998 182.61603 
L 151.502834 181.920841 
L 153.77769 181.536599 
L 156.052547 181.368917 
L 158.327404 181.42084 
L 160.60226 181.691426 
L 162.877117 182.175763 
L 165.476953 182.979577 
L 168.07679 184.03192 
L 171.001605 185.481616 
L 174.2514 187.371001 
L 178.151155 189.929121 
L 184.325766 194.306432 
L 190.175397 198.360227 
L 193.750172 200.579409 
L 196.674988 202.162562 
L 199.599803 203.48506 
L 202.19964 204.409546 
L 204.474496 205.00636 
L 206.749353 205.393718 
L 209.02421 205.564588 
L 211.299066 205.515868 
L 213.573923 205.248444 
L 215.84878 204.767169 
L 218.448616 203.966661 
L 221.048452 202.917343 
L 223.973268 201.470626 
L 227.223063 199.583918 
L 231.122817 197.028001 
L 237.297428 192.65168 
L 243.14706 188.59592 
L 246.721835 186.374234 
L 249.64665 184.788384 
L 252.571466 183.462693 
L 255.171302 182.535028 
L 257.446159 181.935231 
L 259.721016 181.544761 
L 261.995872 181.370703 
L 264.270729 181.416218 
L 266.545586 181.680479 
L 268.820442 182.15869 
L 271.420278 182.955889 
L 274.020115 184.002178 
L 276.94493 185.445912 
L 280.194726 187.329935 
L 284.09448 189.883639 
L 290.269091 194.258953 
L 296.118722 198.316662 
L 299.693497 200.540845 
L 302.618313 202.129385 
L 305.543129 203.458265 
L 308.142965 204.389105 
L 310.417821 204.991881 
L 312.692678 205.385463 
L 314.967535 205.562708 
L 317.242391 205.520398 
L 319.517248 205.2593 
L 321.792105 204.784155 
L 324.391941 203.990269 
L 326.991777 202.947012 
L 329.916593 201.506268 
L 333.166388 199.624937 
L 337.066143 197.073456 
L 343.240753 192.699166 
L 349.090385 188.639522 
L 352.66516 186.412852 
L 355.589975 184.821628 
L 358.514791 183.489565 
L 361.114627 182.555553 
L 363.389484 181.9498 
L 365.664341 181.553107 
L 367.939197 181.372676 
L 370.214054 181.411782 
L 372.488911 181.669714 
L 374.763767 182.141792 
L 377.038624 182.819446 
L 379.63846 183.829691 
L 382.238296 185.06832 
L 385.163112 186.698032 
L 388.737887 188.960037 
L 393.61258 192.348102 
L 398.487273 195.828937 
L 398.487273 195.828937 
" clip-path="url(#p005805a5c6)" style="fill: none; stroke: #7f7f7f; stroke-width: 1.5; stroke-linecap: square"/>
   </g>
   <g id="patch_3">
    <path d="M 57.6 307.584 
L 57.6 41.472 
" style="fill: none; stroke: #000000; stroke-width: 0.8; stroke-linejoin: miter; stroke-linecap: square"/>
   </g>
   <g id="patch_4">
    <path d="M 414.72 307.584 
L 414.72 41.472 
" style="fill: none; stroke: #000000; stroke-width: 0.8; stroke-linejoin: miter; stroke-linecap: square"/>
   </g>
   <g id="patch_5">
    <path d="M 57.6 307.584 
L 414.72 307.584 
" style="fill: none; stroke: #000000; stroke-width: 0.8; stroke-linejoin: miter; stroke-linecap: square"/>
   </g>
   <g id="patch_6">
    <path d="M 57.6 41.472 
L 414.72 41.472 
" style="fill: none; stroke: #000000; stroke-width: 0.8; stroke-linejoin: miter; stroke-linecap: square"/>
   </g>
  </g>
 </g>
 <defs>
  <clipPath id="p005805a5c6">
   <rect x="57.6" y="41.472" width="357.12" height="266.112"/>
  </clipPath>
 </defs>
</svg>
