<?xml version="1.0" encoding="utf-8" standalone="no"?>
<!DOCTYPE svg PUBLIC "-//W3C//DTD SVG 1.1//EN"
  "http://www.w3.org/Graphics/SVG/1.1/DTD/svg11.dtd">
<svg xmlns:xlink="http://www.w3.org/1999/xlink" width="460.8pt" height="345.6pt" viewBox="0 0 460.8 345.6" xmlns="http://www.w3.org/2000/svg" version="1.1">
 <metadata>
  <rdf:RDF xmlns:dc="http://purl.org/dc/elements/1.1/" xmlns:cc="http://creativecommons.org/ns#" xmlns:rdf="http://www.w3.org/1999/02/22-rdf-syntax-ns#">
   <cc:Work>
    <dc:type rdf:resource="http://purl.org/dc/dcmitype/StillImage"/>
    <dc:date>2024-12-11T17:01:59.591242</dc:date>
    <dc:format>image/svg+xml</dc:format>
    <dc:creator>
     <cc:Agent>
      <dc:title>Matplotlib v3.9.2, https://matplotlib.org/</dc:title>
     </cc:Agent>
    </dc:creator>
   </cc:Work>
  </rdf:RDF>
 </metadata>
 <defs>
  <style type="text/css">*{stroke-linejoin: round; stroke-linecap: butt}</style>
 </defs>
 <g id="figure_1">
  <g id="patch_1">
   <path d="M 0 345.6 
L 460.8 345.6 
L 460.8 0 
L 0 0 
z
" style="fill: #ffffff"/>
  </g>
  <g id="axes_1">
   <g id="patch_2">
    <path d="M 57.6 307.584 
L 414.72 307.584 
L 414.72 41.472 
L 57.6 41.472 
z
" style="fill: #ffffff"/>
   </g>
   <g id="matplotlib.axis_1">
    <g id="xtick_1">
     <g id="line2d_1">
      <defs>
       <path id="m65c5351644" d="M 0 0 
L 0 3.5 
" style="stroke: #000000; stroke-width: 0.8"/>
      </defs>
      <g>
       <use xlink:href="#m65c5351644" x="73.832727" y="307.584" style="stroke: #000000; stroke-width: 0.8"/>
      </g>
     </g>
     <g id="text_1">
      <!-- 0 -->
      <g transform="translate(70.651477 322.182437) scale(0.1 -0.1)">
       <defs>
        <path id="DejaVuSans-30" d="M 2034 4250 
Q 1547 4250 1301 3770 
Q 1056 3291 1056 2328 
Q 1056 1369 1301 889 
Q 1547 409 2034 409 
Q 2525 409 2770 889 
Q 3016 1369 3016 2328 
Q 3016 3291 2770 3770 
Q 2525 4250 2034 4250 
z
M 2034 4750 
Q 2819 4750 3233 4129 
Q 3647 3509 3647 2328 
Q 3647 1150 3233 529 
Q 2819 -91 2034 -91 
Q 1250 -91 836 529 
Q 422 1150 422 2328 
Q 422 3509 836 4129 
Q 1250 4750 2034 4750 
z
" transform="scale(0.015625)"/>
       </defs>
       <use xlink:href="#DejaVuSans-30"/>
      </g>
     </g>
    </g>
    <g id="xtick_2">
     <g id="line2d_2">
      <g>
       <use xlink:href="#m65c5351644" x="120.211948" y="307.584" style="stroke: #000000; stroke-width: 0.8"/>
      </g>
     </g>
     <g id="text_2">
      <!-- 1 -->
      <g transform="translate(117.030698 322.182437) scale(0.1 -0.1)">
       <defs>
        <path id="DejaVuSans-31" d="M 794 531 
L 1825 531 
L 1825 4091 
L 703 3866 
L 703 4441 
L 1819 4666 
L 2450 4666 
L 2450 531 
L 3481 531 
L 3481 0 
L 794 0 
L 794 531 
z
" transform="scale(0.015625)"/>
       </defs>
       <use xlink:href="#DejaVuSans-31"/>
      </g>
     </g>
    </g>
    <g id="xtick_3">
     <g id="line2d_3">
      <g>
       <use xlink:href="#m65c5351644" x="166.591169" y="307.584" style="stroke: #000000; stroke-width: 0.8"/>
      </g>
     </g>
     <g id="text_3">
      <!-- 2 -->
      <g transform="translate(163.409919 322.182437) scale(0.1 -0.1)">
       <defs>
        <path id="DejaVuSans-32" d="M 1228 531 
L 3431 531 
L 3431 0 
L 469 0 
L 469 531 
Q 828 903 1448 1529 
Q 2069 2156 2228 2338 
Q 2531 2678 2651 2914 
Q 2772 3150 2772 3378 
Q 2772 3750 2511 3984 
Q 2250 4219 1831 4219 
Q 1534 4219 1204 4116 
Q 875 4013 500 3803 
L 500 4441 
Q 881 4594 1212 4672 
Q 1544 4750 1819 4750 
Q 2544 4750 2975 4387 
Q 3406 4025 3406 3419 
Q 3406 3131 3298 2873 
Q 3191 2616 2906 2266 
Q 2828 2175 2409 1742 
Q 1991 1309 1228 531 
z
" transform="scale(0.015625)"/>
       </defs>
       <use xlink:href="#DejaVuSans-32"/>
      </g>
     </g>
    </g>
    <g id="xtick_4">
     <g id="line2d_4">
      <g>
       <use xlink:href="#m65c5351644" x="212.97039" y="307.584" style="stroke: #000000; stroke-width: 0.8"/>
      </g>
     </g>
     <g id="text_4">
      <!-- 3 -->
      <g transform="translate(209.78914 322.182437) scale(0.1 -0.1)">
       <defs>
        <path id="DejaVuSans-33" d="M 2597 2516 
Q 3050 2419 3304 2112 
Q 3559 1806 3559 1356 
Q 3559 666 3084 287 
Q 2609 -91 1734 -91 
Q 1441 -91 1130 -33 
Q 819 25 488 141 
L 488 750 
Q 750 597 1062 519 
Q 1375 441 1716 441 
Q 2309 441 2620 675 
Q 2931 909 2931 1356 
Q 2931 1769 2642 2001 
Q 2353 2234 1838 2234 
L 1294 2234 
L 1294 2753 
L 1863 2753 
Q 2328 2753 2575 2939 
Q 2822 3125 2822 3475 
Q 2822 3834 2567 4026 
Q 2313 4219 1838 4219 
Q 1578 4219 1281 4162 
Q 984 4106 628 3988 
L 628 4550 
Q 988 4650 1302 4700 
Q 1616 4750 1894 4750 
Q 2613 4750 3031 4423 
Q 3450 4097 3450 3541 
Q 3450 3153 3228 2886 
Q 3006 2619 2597 2516 
z
" transform="scale(0.015625)"/>
       </defs>
       <use xlink:href="#DejaVuSans-33"/>
      </g>
     </g>
    </g>
    <g id="xtick_5">
     <g id="line2d_5">
      <g>
       <use xlink:href="#m65c5351644" x="259.34961" y="307.584" style="stroke: #000000; stroke-width: 0.8"/>
      </g>
     </g>
     <g id="text_5">
      <!-- 4 -->
      <g transform="translate(256.16836 322.182437) scale(0.1 -0.1)">
       <defs>
        <path id="DejaVuSans-34" d="M 2419 4116 
L 825 1625 
L 2419 1625 
L 2419 4116 
z
M 2253 4666 
L 3047 4666 
L 3047 1625 
L 3713 1625 
L 3713 1100 
L 3047 1100 
L 3047 0 
L 2419 0 
L 2419 1100 
L 313 1100 
L 313 1709 
L 2253 4666 
z
" transform="scale(0.015625)"/>
       </defs>
       <use xlink:href="#DejaVuSans-34"/>
      </g>
     </g>
    </g>
    <g id="xtick_6">
     <g id="line2d_6">
      <g>
       <use xlink:href="#m65c5351644" x="305.728831" y="307.584" style="stroke: #000000; stroke-width: 0.8"/>
      </g>
     </g>
     <g id="text_6">
      <!-- 5 -->
      <g transform="translate(302.547581 322.182437) scale(0.1 -0.1)">
       <defs>
        <path id="DejaVuSans-35" d="M 691 4666 
L 3169 4666 
L 3169 4134 
L 1269 4134 
L 1269 2991 
Q 1406 3038 1543 3061 
Q 1681 3084 1819 3084 
Q 2600 3084 3056 2656 
Q 3513 2228 3513 1497 
Q 3513 744 3044 326 
Q 2575 -91 1722 -91 
Q 1428 -91 1123 -41 
Q 819 9 494 109 
L 494 744 
Q 775 591 1075 516 
Q 1375 441 1709 441 
Q 2250 441 2565 725 
Q 2881 1009 2881 1497 
Q 2881 1984 2565 2268 
Q 2250 2553 1709 2553 
Q 1456 2553 1204 2497 
Q 953 2441 691 2322 
L 691 4666 
z
" transform="scale(0.015625)"/>
       </defs>
       <use xlink:href="#DejaVuSans-35"/>
      </g>
     </g>
    </g>
    <g id="xtick_7">
     <g id="line2d_7">
      <g>
       <use xlink:href="#m65c5351644" x="352.108052" y="307.584" style="stroke: #000000; stroke-width: 0.8"/>
      </g>
     </g>
     <g id="text_7">
      <!-- 6 -->
      <g transform="translate(348.926802 322.182437) scale(0.1 -0.1)">
       <defs>
        <path id="DejaVuSans-36" d="M 2113 2584 
Q 1688 2584 1439 2293 
Q 1191 2003 1191 1497 
Q 1191 994 1439 701 
Q 1688 409 2113 409 
Q 2538 409 2786 701 
Q 3034 994 3034 1497 
Q 3034 2003 2786 2293 
Q 2538 2584 2113 2584 
z
M 3366 4563 
L 3366 3988 
Q 3128 4100 2886 4159 
Q 2644 4219 2406 4219 
Q 1781 4219 1451 3797 
Q 1122 3375 1075 2522 
Q 1259 2794 1537 2939 
Q 1816 3084 2150 3084 
Q 2853 3084 3261 2657 
Q 3669 2231 3669 1497 
Q 3669 778 3244 343 
Q 2819 -91 2113 -91 
Q 1303 -91 875 529 
Q 447 1150 447 2328 
Q 447 3434 972 4092 
Q 1497 4750 2381 4750 
Q 2619 4750 2861 4703 
Q 3103 4656 3366 4563 
z
" transform="scale(0.015625)"/>
       </defs>
       <use xlink:href="#DejaVuSans-36"/>
      </g>
     </g>
    </g>
    <g id="xtick_8">
     <g id="line2d_8">
      <g>
       <use xlink:href="#m65c5351644" x="398.487273" y="307.584" style="stroke: #000000; stroke-width: 0.8"/>
      </g>
     </g>
     <g id="text_8">
      <!-- 7 -->
      <g transform="translate(395.306023 322.182437) scale(0.1 -0.1)">
       <defs>
        <path id="DejaVuSans-37" d="M 525 4666 
L 3525 4666 
L 3525 4397 
L 1831 0 
L 1172 0 
L 2766 4134 
L 525 4134 
L 525 4666 
z
" transform="scale(0.015625)"/>
       </defs>
       <use xlink:href="#DejaVuSans-37"/>
      </g>
     </g>
    </g>
   </g>
   <g id="matplotlib.axis_2">
    <g id="ytick_1">
     <g id="line2d_9">
      <defs>
       <path id="m7e3d436716" d="M 0 0 
L -3.5 0 
" style="stroke: #000000; stroke-width: 0.8"/>
      </defs>
      <g>
       <use xlink:href="#m7e3d436716" x="57.6" y="174.528001" style="stroke: #000000; stroke-width: 0.8"/>
      </g>
     </g>
     <g id="text_9">
      <!-- 0.000 -->
      <g transform="translate(21.971875 178.32722) scale(0.1 -0.1)">
       <defs>
        <path id="DejaVuSans-2e" d="M 684 794 
L 1344 794 
L 1344 0 
L 684 0 
L 684 794 
z
" transform="scale(0.015625)"/>
       </defs>
       <use xlink:href="#DejaVuSans-30"/>
       <use xlink:href="#DejaVuSans-2e" x="63.623047"/>
       <use xlink:href="#DejaVuSans-30" x="95.410156"/>
       <use xlink:href="#DejaVuSans-30" x="159.033203"/>
       <use xlink:href="#DejaVuSans-30" x="222.65625"/>
      </g>
     </g>
    </g>
    <g id="ytick_2">
     <g id="line2d_10">
      <g>
       <use xlink:href="#m7e3d436716" x="57.6" y="53.568" style="stroke: #000000; stroke-width: 0.8"/>
      </g>
     </g>
     <g id="text_10">
      <!-- 1.000 -->
      <g transform="translate(21.971875 57.367219) scale(0.1 -0.1)">
       <use xlink:href="#DejaVuSans-31"/>
       <use xlink:href="#DejaVuSans-2e" x="63.623047"/>
       <use xlink:href="#DejaVuSans-30" x="95.410156"/>
       <use xlink:href="#DejaVuSans-30" x="159.033203"/>
       <use xlink:href="#DejaVuSans-30" x="222.65625"/>
      </g>
     </g>
    </g>
    <g id="ytick_3">
     <g id="line2d_11">
      <g>
       <use xlink:href="#m7e3d436716" x="57.6" y="55.86624" style="stroke: #000000; stroke-width: 0.8"/>
      </g>
     </g>
     <g id="text_11">
      <!-- 0.981 -->
      <g transform="translate(21.971875 59.665459) scale(0.1 -0.1)">
       <defs>
        <path id="DejaVuSans-39" d="M 703 97 
L 703 672 
Q 941 559 1184 500 
Q 1428 441 1663 441 
Q 2288 441 2617 861 
Q 2947 1281 2994 2138 
Q 2813 1869 2534 1725 
Q 2256 1581 1919 1581 
Q 1219 1581 811 2004 
Q 403 2428 403 3163 
Q 403 3881 828 4315 
Q 1253 4750 1959 4750 
Q 2769 4750 3195 4129 
Q 3622 3509 3622 2328 
Q 3622 1225 3098 567 
Q 2575 -91 1691 -91 
Q 1453 -91 1209 -44 
Q 966 3 703 97 
z
M 1959 2075 
Q 2384 2075 2632 2365 
Q 2881 2656 2881 3163 
Q 2881 3666 2632 3958 
Q 2384 4250 1959 4250 
Q 1534 4250 1286 3958 
Q 1038 3666 1038 3163 
Q 1038 2656 1286 2365 
Q 1534 2075 1959 2075 
z
" transform="scale(0.015625)"/>
        <path id="DejaVuSans-38" d="M 2034 2216 
Q 1584 2216 1326 1975 
Q 1069 1734 1069 1313 
Q 1069 891 1326 650 
Q 1584 409 2034 409 
Q 2484 409 2743 651 
Q 3003 894 3003 1313 
Q 3003 1734 2745 1975 
Q 2488 2216 2034 2216 
z
M 1403 2484 
Q 997 2584 770 2862 
Q 544 3141 544 3541 
Q 544 4100 942 4425 
Q 1341 4750 2034 4750 
Q 2731 4750 3128 4425 
Q 3525 4100 3525 3541 
Q 3525 3141 3298 2862 
Q 3072 2584 2669 2484 
Q 3125 2378 3379 2068 
Q 3634 1759 3634 1313 
Q 3634 634 3220 271 
Q 2806 -91 2034 -91 
Q 1263 -91 848 271 
Q 434 634 434 1313 
Q 434 1759 690 2068 
Q 947 2378 1403 2484 
z
M 1172 3481 
Q 1172 3119 1398 2916 
Q 1625 2713 2034 2713 
Q 2441 2713 2670 2916 
Q 2900 3119 2900 3481 
Q 2900 3844 2670 4047 
Q 2441 4250 2034 4250 
Q 1625 4250 1398 4047 
Q 1172 3844 1172 3481 
z
" transform="scale(0.015625)"/>
       </defs>
       <use xlink:href="#DejaVuSans-30"/>
       <use xlink:href="#DejaVuSans-2e" x="63.623047"/>
       <use xlink:href="#DejaVuSans-39" x="95.410156"/>
       <use xlink:href="#DejaVuSans-38" x="159.033203"/>
       <use xlink:href="#DejaVuSans-31" x="222.65625"/>
      </g>
     </g>
    </g>
    <g id="ytick_4">
     <g id="line2d_12">
      <g>
       <use xlink:href="#m7e3d436716" x="57.6" y="107.274241" style="stroke: #000000; stroke-width: 0.8"/>
      </g>
     </g>
     <g id="text_12">
      <!-- 0.556 -->
      <g transform="translate(21.971875 111.073459) scale(0.1 -0.1)">
       <use xlink:href="#DejaVuSans-30"/>
       <use xlink:href="#DejaVuSans-2e" x="63.623047"/>
       <use xlink:href="#DejaVuSans-35" x="95.410156"/>
       <use xlink:href="#DejaVuSans-35" x="159.033203"/>
       <use xlink:href="#DejaVuSans-36" x="222.65625"/>
      </g>
     </g>
    </g>
    <g id="ytick_5">
     <g id="line2d_13">
      <g>
       <use xlink:href="#m7e3d436716" x="57.6" y="74.01024" style="stroke: #000000; stroke-width: 0.8"/>
      </g>
     </g>
     <g id="text_13">
      <!-- 0.831 -->
      <g transform="translate(21.971875 77.809459) scale(0.1 -0.1)">
       <use xlink:href="#DejaVuSans-30"/>
       <use xlink:href="#DejaVuSans-2e" x="63.623047"/>
       <use xlink:href="#DejaVuSans-38" x="95.410156"/>
       <use xlink:href="#DejaVuSans-33" x="159.033203"/>
       <use xlink:href="#DejaVuSans-31" x="222.65625"/>
      </g>
     </g>
    </g>
    <g id="ytick_6">
     <g id="line2d_14">
      <g>
       <use xlink:href="#m7e3d436716" x="57.6" y="150.940801" style="stroke: #000000; stroke-width: 0.8"/>
      </g>
     </g>
     <g id="text_14">
      <!-- 0.195 -->
      <g transform="translate(21.971875 154.74002) scale(0.1 -0.1)">
       <use xlink:href="#DejaVuSans-30"/>
       <use xlink:href="#DejaVuSans-2e" x="63.623047"/>
       <use xlink:href="#DejaVuSans-31" x="95.410156"/>
       <use xlink:href="#DejaVuSans-39" x="159.033203"/>
       <use xlink:href="#DejaVuSans-35" x="222.65625"/>
      </g>
     </g>
    </g>
    <g id="ytick_7">
     <g id="line2d_15">
      <g>
       <use xlink:href="#m7e3d436716" x="57.6" y="198.115201" style="stroke: #000000; stroke-width: 0.8"/>
      </g>
     </g>
     <g id="text_15">
      <!-- −0.195 -->
      <g transform="translate(13.592188 201.91442) scale(0.1 -0.1)">
       <defs>
        <path id="DejaVuSans-2212" d="M 678 2272 
L 4684 2272 
L 4684 1741 
L 678 1741 
L 678 2272 
z
" transform="scale(0.015625)"/>
       </defs>
       <use xlink:href="#DejaVuSans-2212"/>
       <use xlink:href="#DejaVuSans-30" x="83.789062"/>
       <use xlink:href="#DejaVuSans-2e" x="147.412109"/>
       <use xlink:href="#DejaVuSans-31" x="179.199219"/>
       <use xlink:href="#DejaVuSans-39" x="242.822266"/>
       <use xlink:href="#DejaVuSans-35" x="306.445312"/>
      </g>
     </g>
    </g>
    <g id="ytick_8">
     <g id="line2d_16">
      <g>
       <use xlink:href="#m7e3d436716" x="57.6" y="241.781762" style="stroke: #000000; stroke-width: 0.8"/>
      </g>
     </g>
     <g id="text_16">
      <!-- −0.556 -->
      <g transform="translate(13.592188 245.580981) scale(0.1 -0.1)">
       <use xlink:href="#DejaVuSans-2212"/>
       <use xlink:href="#DejaVuSans-30" x="83.789062"/>
       <use xlink:href="#DejaVuSans-2e" x="147.412109"/>
       <use xlink:href="#DejaVuSans-35" x="179.199219"/>
       <use xlink:href="#DejaVuSans-35" x="242.822266"/>
       <use xlink:href="#DejaVuSans-36" x="306.445312"/>
      </g>
     </g>
    </g>
    <g id="ytick_9">
     <g id="line2d_17">
      <g>
       <use xlink:href="#m7e3d436716" x="57.6" y="275.045762" style="stroke: #000000; stroke-width: 0.8"/>
      </g>
     </g>
     <g id="text_17">
      <!-- −0.831 -->
      <g transform="translate(13.592188 278.844981) scale(0.1 -0.1)">
       <use xlink:href="#DejaVuSans-2212"/>
       <use xlink:href="#DejaVuSans-30" x="83.789062"/>
       <use xlink:href="#DejaVuSans-2e" x="147.412109"/>
       <use xlink:href="#DejaVuSans-38" x="179.199219"/>
       <use xlink:href="#DejaVuSans-33" x="242.822266"/>
       <use xlink:href="#DejaVuSans-31" x="306.445312"/>
      </g>
     </g>
    </g>
    <g id="ytick_10">
     <g id="line2d_18">
      <g>
       <use xlink:href="#m7e3d436716" x="57.6" y="293.189762" style="stroke: #000000; stroke-width: 0.8"/>
      </g>
     </g>
     <g id="text_18">
      <!-- −0.981 -->
      <g transform="translate(13.592188 296.988981) scale(0.1 -0.1)">
       <use xlink:href="#DejaVuSans-2212"/>
       <use xlink:href="#DejaVuSans-30" x="83.789062"/>
       <use xlink:href="#DejaVuSans-2e" x="147.412109"/>
       <use xlink:href="#DejaVuSans-39" x="179.199219"/>
       <use xlink:href="#DejaVuSans-38" x="242.822266"/>
       <use xlink:href="#DejaVuSans-31" x="306.445312"/>
      </g>
     </g>
    </g>
    <g id="ytick_11">
     <g id="line2d_19">
      <g>
       <use xlink:href="#m7e3d436716" x="57.6" y="62.76096" style="stroke: #000000; stroke-width: 0.8"/>
      </g>
     </g>
     <g id="text_19">
      <!-- 0.924 -->
      <g transform="translate(21.971875 66.560179) scale(0.1 -0.1)">
       <use xlink:href="#DejaVuSans-30"/>
       <use xlink:href="#DejaVuSans-2e" x="63.623047"/>
       <use xlink:href="#DejaVuSans-39" x="95.410156"/>
       <use xlink:href="#DejaVuSans-32" x="159.033203"/>
       <use xlink:href="#DejaVuSans-34" x="222.65625"/>
      </g>
     </g>
    </g>
    <g id="ytick_12">
     <g id="line2d_20">
      <g>
       <use xlink:href="#m7e3d436716" x="57.6" y="89.00928" style="stroke: #000000; stroke-width: 0.8"/>
      </g>
     </g>
     <g id="text_20">
      <!-- 0.707 -->
      <g transform="translate(21.971875 92.808499) scale(0.1 -0.1)">
       <use xlink:href="#DejaVuSans-30"/>
       <use xlink:href="#DejaVuSans-2e" x="63.623047"/>
       <use xlink:href="#DejaVuSans-37" x="95.410156"/>
       <use xlink:href="#DejaVuSans-30" x="159.033203"/>
       <use xlink:href="#DejaVuSans-37" x="222.65625"/>
      </g>
     </g>
    </g>
    <g id="ytick_13">
     <g id="line2d_21">
      <g>
       <use xlink:href="#m7e3d436716" x="57.6" y="260.046722" style="stroke: #000000; stroke-width: 0.8"/>
      </g>
     </g>
     <g id="text_21">
      <!-- −0.707 -->
      <g transform="translate(13.592188 263.845941) scale(0.1 -0.1)">
       <use xlink:href="#DejaVuSans-2212"/>
       <use xlink:href="#DejaVuSans-30" x="83.789062"/>
       <use xlink:href="#DejaVuSans-2e" x="147.412109"/>
       <use xlink:href="#DejaVuSans-37" x="179.199219"/>
       <use xlink:href="#DejaVuSans-30" x="242.822266"/>
       <use xlink:href="#DejaVuSans-37" x="306.445312"/>
      </g>
     </g>
    </g>
    <g id="ytick_14">
     <g id="line2d_22">
      <g>
       <use xlink:href="#m7e3d436716" x="57.6" y="128.200321" style="stroke: #000000; stroke-width: 0.8"/>
      </g>
     </g>
     <g id="text_22">
      <!-- 0.383 -->
      <g transform="translate(21.971875 131.999539) scale(0.1 -0.1)">
       <use xlink:href="#DejaVuSans-30"/>
       <use xlink:href="#DejaVuSans-2e" x="63.623047"/>
       <use xlink:href="#DejaVuSans-33" x="95.410156"/>
       <use xlink:href="#DejaVuSans-38" x="159.033203"/>
       <use xlink:href="#DejaVuSans-33" x="222.65625"/>
      </g>
     </g>
    </g>
    <g id="ytick_15">
     <g id="line2d_23">
      <g>
       <use xlink:href="#m7e3d436716" x="57.6" y="286.295042" style="stroke: #000000; stroke-width: 0.8"/>
      </g>
     </g>
     <g id="text_23">
      <!-- −0.924 -->
      <g transform="translate(13.592188 290.094261) scale(0.1 -0.1)">
       <use xlink:href="#DejaVuSans-2212"/>
       <use xlink:href="#DejaVuSans-30" x="83.789062"/>
       <use xlink:href="#DejaVuSans-2e" x="147.412109"/>
       <use xlink:href="#DejaVuSans-39" x="179.199219"/>
       <use xlink:href="#DejaVuSans-32" x="242.822266"/>
       <use xlink:href="#DejaVuSans-34" x="306.445312"/>
      </g>
     </g>
    </g>
    <g id="ytick_16">
     <g id="line2d_24">
      <g>
       <use xlink:href="#m7e3d436716" x="57.6" y="220.855682" style="stroke: #000000; stroke-width: 0.8"/>
      </g>
     </g>
     <g id="text_24">
      <!-- −0.383 -->
      <g transform="translate(13.592188 224.6549) scale(0.1 -0.1)">
       <use xlink:href="#DejaVuSans-2212"/>
       <use xlink:href="#DejaVuSans-30" x="83.789062"/>
       <use xlink:href="#DejaVuSans-2e" x="147.412109"/>
       <use xlink:href="#DejaVuSans-33" x="179.199219"/>
       <use xlink:href="#DejaVuSans-38" x="242.822266"/>
       <use xlink:href="#DejaVuSans-33" x="306.445312"/>
      </g>
     </g>
    </g>
   </g>
   <g id="line2d_25">
    <path d="M 73.832727 53.568 
L 398.487273 53.568 
L 398.487273 53.568 
" clip-path="url(#pe625e163ba)" style="fill: none; stroke: #1f77b4; stroke-width: 1.5; stroke-linecap: square"/>
   </g>
   <g id="line2d_26">
    <path d="M 73.832727 55.892213 
L 79.0324 57.045774 
L 84.232072 58.427016 
L 89.431744 60.033263 
L 94.631417 61.861401 
L 100.156069 64.042954 
L 105.680721 66.466224 
L 111.205373 69.12591 
L 117.055004 72.193257 
L 122.904636 75.511598 
L 129.079247 79.277588 
L 135.253857 83.303869 
L 141.753448 87.811156 
L 148.578018 92.826139 
L 155.402588 98.113852 
L 162.552138 103.926639 
L 170.351646 110.562087 
L 178.476134 117.77011 
L 187.250581 125.855286 
L 196.999967 135.151773 
L 208.049271 146.0085 
L 221.698411 159.75365 
L 270.12036 208.832345 
L 280.844685 219.209271 
L 290.269091 228.027242 
L 299.043538 235.932132 
L 307.168026 242.950345 
L 314.642555 249.121998 
L 321.792105 254.746163 
L 328.616675 259.840817 
L 335.116265 264.428344 
L 341.615856 268.743666 
L 347.790467 272.579181 
L 353.965078 276.14675 
L 359.814709 279.270546 
L 365.664341 282.137442 
L 371.188993 284.602832 
L 376.713645 286.827403 
L 382.238296 288.806288 
L 387.437969 290.44045 
L 392.637641 291.849974 
L 397.837314 293.032127 
L 398.487273 293.16379 
L 398.487273 293.16379 
" clip-path="url(#pe625e163ba)" style="fill: none; stroke: #ff7f0e; stroke-width: 1.5; stroke-linecap: square"/>
   </g>
   <g id="line2d_27">
    <path d="M 73.832727 62.775532 
L 76.757543 65.204337 
L 80.007338 68.217208 
L 83.257133 71.551974 
L 86.506929 75.198536 
L 90.081704 79.556674 
L 93.656478 84.26274 
L 97.556233 89.773151 
L 101.780966 96.15894 
L 106.0057 102.94568 
L 110.555414 110.663008 
L 115.755086 119.944022 
L 121.279738 130.266805 
L 127.779328 142.89987 
L 135.903817 159.21109 
L 161.902179 211.807196 
L 168.401769 224.22156 
L 173.926421 234.306628 
L 178.801114 242.773792 
L 183.350827 250.258245 
L 187.575561 256.806676 
L 191.800295 262.934153 
L 195.700049 268.18951 
L 199.274824 272.648743 
L 202.849599 276.748509 
L 206.099394 280.15097 
L 209.349189 283.233621 
L 212.274005 285.726833 
L 215.198821 287.947309 
L 218.123636 289.889605 
L 221.048452 291.548955 
L 223.648288 292.783092 
L 226.248124 293.788051 
L 228.847961 294.561883 
L 231.447797 295.10309 
L 234.047633 295.410621 
L 236.647469 295.483881 
L 239.247305 295.322728 
L 241.847142 294.927475 
L 244.446978 294.298887 
L 247.046814 293.438182 
L 249.64665 292.347029 
L 252.246486 291.027542 
L 255.171302 289.27339 
L 258.096118 287.237804 
L 261.020934 284.925778 
L 263.945749 282.34298 
L 267.195545 279.163362 
L 270.44534 275.666922 
L 274.020115 271.467574 
L 277.594889 266.913087 
L 281.494644 261.55916 
L 285.394398 255.825809 
L 289.619132 249.215539 
L 294.168845 241.670463 
L 299.043538 233.14562 
L 304.56819 223.004759 
L 310.742801 211.17336 
L 318.21733 196.328053 
L 329.266634 173.814779 
L 342.590794 146.771525 
L 349.740344 132.755376 
L 355.914955 121.135399 
L 361.114627 111.797513 
L 365.98932 103.483362 
L 370.539034 96.15894 
L 374.763767 89.773151 
L 378.663522 84.26274 
L 382.563276 79.145853 
L 386.138051 74.820156 
L 389.712826 70.85974 
L 392.962621 67.588576 
L 396.212416 64.64121 
L 398.487273 62.775532 
L 398.487273 62.775532 
" clip-path="url(#pe625e163ba)" style="fill: none; stroke: #2ca02c; stroke-width: 1.5; stroke-linecap: square"/>
   </g>
   <g id="line2d_28">
    <path d="M 73.832727 73.953436 
L 76.432563 78.607415 
L 79.357379 84.341914 
L 82.282195 90.57398 
L 85.53199 98.040158 
L 89.106765 106.852554 
L 93.006519 117.099415 
L 97.231253 128.832304 
L 102.430925 143.979719 
L 109.255495 164.625249 
L 123.554595 208.102132 
L 128.754267 223.113643 
L 133.30398 235.563053 
L 137.203735 245.591881 
L 140.778509 254.17517 
L 144.028305 261.410425 
L 146.95312 267.417561 
L 149.877936 272.912214 
L 152.477772 277.341544 
L 155.077609 281.322645 
L 157.352465 284.424728 
L 159.627322 287.159961 
L 161.902179 289.519214 
L 163.852056 291.236178 
L 165.801933 292.666894 
L 167.75181 293.807853 
L 169.701687 294.656256 
L 171.326585 295.138256 
L 172.951482 295.414814 
L 174.57638 295.485458 
L 176.201278 295.350069 
L 177.826175 295.008876 
L 179.451073 294.462461 
L 181.075971 293.711756 
L 183.025848 292.543069 
L 184.975725 291.084929 
L 186.925602 289.340912 
L 188.875479 287.315296 
L 191.150336 284.602832 
L 193.425192 281.522925 
L 195.700049 278.085855 
L 198.299885 273.735205 
L 200.899722 268.952049 
L 203.824537 263.080051 
L 206.749353 256.719502 
L 209.999148 249.121998 
L 213.573923 240.180073 
L 217.473677 229.810955 
L 222.023391 217.036024 
L 227.223063 201.75198 
L 234.697592 179.020294 
L 246.396855 143.427975 
L 251.921507 127.383365 
L 256.47122 114.852743 
L 260.370975 104.739818 
L 263.945749 96.06843 
L 267.195545 88.744573 
L 270.12036 82.651277 
L 273.045176 77.064876 
L 275.645012 72.54971 
L 278.244848 68.479132 
L 280.519705 65.296076 
L 282.794562 62.477651 
L 285.069419 60.033263 
L 287.019296 58.241997 
L 288.969173 56.735944 
L 290.91905 55.518796 
L 292.868927 54.593541 
L 294.493825 54.047126 
L 296.118722 53.705934 
L 297.74362 53.570544 
L 299.368518 53.641189 
L 300.993415 53.917746 
L 302.618313 54.399746 
L 304.24321 55.086368 
L 306.193088 56.178742 
L 308.142965 57.56139 
L 310.092842 59.23092 
L 312.042719 61.183236 
L 314.317576 63.811924 
L 316.592432 66.810195 
L 318.867289 70.168043 
L 321.467125 74.431446 
L 324.066962 79.131234 
L 326.991777 84.914527 
L 329.916593 91.192229 
L 333.166388 98.705103 
L 336.741163 107.563622 
L 340.640917 117.854106 
L 344.865651 129.62589 
L 350.065324 144.808604 
L 356.889894 165.478489 
L 370.864013 207.965068 
L 376.063686 222.982976 
L 380.613399 235.439856 
L 384.513153 245.476399 
L 388.087928 254.067757 
L 391.337723 261.311118 
L 394.262539 267.326129 
L 397.187355 272.829161 
L 398.487273 275.102566 
L 398.487273 275.102566 
" clip-path="url(#pe625e163ba)" style="fill: none; stroke: #d62728; stroke-width: 1.5; stroke-linecap: square"/>
   </g>
   <g id="line2d_29">
    <path d="M 73.832727 88.996364 
L 76.432563 96.849284 
L 79.357379 106.400031 
L 82.607174 117.791106 
L 86.506929 132.35403 
L 91.056642 150.254058 
L 98.856151 182.035824 
L 105.680721 209.492929 
L 109.905455 225.647907 
L 113.480229 238.514092 
L 116.730025 249.402403 
L 119.65484 258.430662 
L 122.254676 265.767743 
L 124.529533 271.609581 
L 126.80439 276.875419 
L 128.754267 280.906765 
L 130.704144 284.474339 
L 132.654021 287.562588 
L 134.278919 289.7602 
L 135.903817 291.608906 
L 137.528714 293.103107 
L 138.828632 294.040148 
L 140.12855 294.745575 
L 141.428468 295.218019 
L 142.728387 295.456566 
L 144.028305 295.460752 
L 145.328223 295.23057 
L 146.628141 294.766466 
L 147.928059 294.06934 
L 149.227977 293.140542 
L 150.852875 291.656541 
L 152.477772 289.817891 
L 154.10267 287.630161 
L 155.727568 285.099973 
L 157.677445 281.622563 
L 159.627322 277.67826 
L 161.902179 272.509524 
L 164.177035 266.759447 
L 166.776871 259.520001 
L 169.376708 251.622015 
L 172.301523 242.025998 
L 175.551319 230.591886 
L 179.451073 215.988107 
L 184.325766 196.748844 
L 194.725111 154.366905 
L 200.249762 132.532341 
L 204.149517 117.959149 
L 207.724292 105.460132 
L 210.649107 95.977996 
L 213.573923 87.266019 
L 216.173759 80.237832 
L 218.448616 74.685752 
L 220.723473 69.726051 
L 222.67335 65.968771 
L 224.623227 62.684768 
L 226.248124 60.320023 
L 227.873022 58.301084 
L 229.49792 56.634063 
L 231.122817 55.324008 
L 232.422735 54.535681 
L 233.722654 53.979901 
L 235.022572 53.657743 
L 236.32249 53.569832 
L 237.622408 53.716338 
L 238.922326 54.096978 
L 240.222244 54.711014 
L 241.522162 55.557255 
L 242.82208 56.634063 
L 244.446978 58.301084 
L 246.071876 60.320023 
L 247.696773 62.684768 
L 249.64665 65.968771 
L 251.596527 69.726051 
L 253.546405 73.94023 
L 255.821261 79.409621 
L 258.096118 85.443365 
L 260.695954 92.984048 
L 263.62077 102.21944 
L 266.870565 113.308314 
L 270.44534 126.356367 
L 274.670074 142.67046 
L 280.519705 166.261024 
L 291.244029 209.67496 
L 295.468763 225.820217 
L 299.043538 238.675417 
L 302.293333 249.551687 
L 305.218149 258.567559 
L 307.817985 265.892499 
L 310.092842 271.722917 
L 312.367699 276.976662 
L 314.317576 280.997162 
L 316.267453 284.553497 
L 318.21733 287.630161 
L 319.842228 289.817891 
L 321.467125 291.656541 
L 323.092023 293.140542 
L 324.391941 294.06934 
L 325.691859 294.766466 
L 326.991777 295.23057 
L 328.291695 295.460752 
L 329.591613 295.456566 
L 330.891532 295.218019 
L 332.19145 294.745575 
L 333.491368 294.040148 
L 334.791286 293.103107 
L 336.416183 291.608906 
L 338.041081 289.7602 
L 339.665979 287.562588 
L 341.290876 285.022724 
L 343.240753 281.534012 
L 345.190631 277.578795 
L 347.465487 272.397876 
L 349.740344 266.636279 
L 352.34018 259.384566 
L 354.940016 251.475361 
L 357.864832 241.868086 
L 361.114627 230.423286 
L 365.014382 215.809384 
L 369.889075 196.56186 
L 387.437969 126.181966 
L 391.337723 112.000907 
L 394.587518 101.005437 
L 397.512334 91.866707 
L 398.487273 88.996364 
L 398.487273 88.996364 
" clip-path="url(#pe625e163ba)" style="fill: none; stroke: #9467bd; stroke-width: 1.5; stroke-linecap: square"/>
   </g>
   <g id="line2d_30">
    <path d="M 73.832727 107.326225 
L 76.757543 120.262498 
L 80.332318 137.180961 
L 84.882031 159.895237 
L 95.931335 215.608197 
L 99.50611 232.291085 
L 102.430925 244.974841 
L 105.030762 255.349365 
L 107.305618 263.628718 
L 109.580475 271.082286 
L 111.530352 276.761217 
L 113.480229 281.743887 
L 115.105127 285.339615 
L 116.730025 288.411164 
L 118.354922 290.944006 
L 119.65484 292.574271 
L 120.954758 293.84711 
L 122.254676 294.758667 
L 123.229615 295.203542 
L 124.204554 295.442864 
L 125.179492 295.476225 
L 126.154431 295.303568 
L 127.129369 294.925186 
L 128.104308 294.341726 
L 129.404226 293.246533 
L 130.704144 291.791879 
L 132.004062 289.982166 
L 133.30398 287.822874 
L 134.928878 284.642224 
L 136.553776 280.940695 
L 138.178673 276.735796 
L 140.12855 271.053638 
L 142.078428 264.714089 
L 144.353284 256.544916 
L 146.95312 246.282689 
L 149.877936 233.706287 
L 153.127731 218.678549 
L 157.027486 199.570018 
L 164.502015 161.50127 
L 169.701687 135.556645 
L 173.276462 118.738162 
L 176.201278 105.909739 
L 178.801114 95.383036 
L 181.40095 85.814167 
L 183.675807 78.318478 
L 185.625684 72.600885 
L 187.575561 67.577468 
L 189.200459 63.946392 
L 190.825356 60.838407 
L 192.450254 58.268213 
L 193.750172 56.607525 
L 195.05009 55.303884 
L 196.350008 54.361236 
L 197.324947 53.89291 
L 198.299885 53.63007 
L 199.274824 53.573161 
L 200.249762 53.722282 
L 201.224701 54.077178 
L 202.19964 54.637245 
L 203.499558 55.701456 
L 204.799476 57.125457 
L 206.099394 58.904936 
L 207.399312 61.034505 
L 209.02421 64.178858 
L 210.649107 67.845201 
L 212.274005 72.016192 
L 214.223882 77.659572 
L 216.173759 83.962678 
L 218.448616 92.092614 
L 221.048452 102.314768 
L 223.973268 114.852743 
L 227.223063 129.846732 
L 231.122817 148.928046 
L 238.272367 185.330856 
L 243.797019 212.95877 
L 247.371794 229.810955 
L 250.621589 244.044065 
L 253.221425 254.496743 
L 255.496282 262.852979 
L 257.771138 270.390622 
L 259.721016 276.14675 
L 261.670893 281.210801 
L 263.29579 284.877145 
L 264.920688 288.021497 
L 266.545586 290.628986 
L 267.845504 292.320059 
L 269.145422 293.654474 
L 270.44534 294.628192 
L 271.420278 295.119957 
L 272.395217 295.406311 
L 273.370156 295.486766 
L 274.345094 295.361186 
L 275.320033 295.029783 
L 276.294971 294.493122 
L 277.26991 293.752118 
L 278.569828 292.448477 
L 279.869746 290.787789 
L 281.169664 288.775084 
L 282.794562 285.773561 
L 284.419459 282.245807 
L 286.044357 278.20851 
L 287.994234 272.71821 
L 289.944111 266.559184 
L 292.218968 258.584656 
L 294.818804 248.521636 
L 297.41864 237.563125 
L 300.668436 222.80865 
L 304.56819 203.924649 
L 310.417821 174.266485 
L 317.567371 138.222655 
L 321.467125 119.753164 
L 324.716921 105.479651 
L 327.316757 94.988245 
L 329.591613 86.593844 
L 331.86647 79.014416 
L 333.816347 73.219881 
L 335.766224 68.115308 
L 337.391122 64.413778 
L 339.01602 61.233128 
L 340.640917 58.588403 
L 341.940835 56.866983 
L 343.240753 55.501823 
L 344.540672 54.497057 
L 345.51561 53.981863 
L 346.490549 53.672002 
L 347.465487 53.568002 
L 348.440426 53.67004 
L 349.415364 53.977943 
L 350.390303 54.491185 
L 351.365242 55.208893 
L 352.66516 56.481731 
L 353.965078 58.111996 
L 355.264996 60.094753 
L 356.889894 63.059642 
L 358.514791 66.551817 
L 360.139689 70.554757 
L 362.089566 76.00567 
L 364.039443 82.127571 
L 366.3143 90.061981 
L 368.589156 98.779221 
L 371.188993 109.596404 
L 374.113808 122.698133 
L 377.688583 139.767961 
L 382.563276 164.246188 
L 392.312662 213.454341 
L 395.887437 230.275647 
L 398.487273 241.729777 
L 398.487273 241.729777 
" clip-path="url(#pe625e163ba)" style="fill: none; stroke: #8c564b; stroke-width: 1.5; stroke-linecap: square"/>
   </g>
   <g id="line2d_31">
    <path d="M 73.832727 128.238613 
L 77.407502 149.183698 
L 90.731663 228.857237 
L 93.656478 244.257917 
L 95.931335 255.190044 
L 98.206192 265.04603 
L 100.156069 272.537398 
L 101.780966 278.048981 
L 103.405864 282.855532 
L 105.030762 286.924315 
L 106.33068 289.629353 
L 107.630598 291.832593 
L 108.930516 293.524428 
L 109.905455 294.453173 
L 110.880393 295.08778 
L 111.855332 295.426692 
L 112.83027 295.469078 
L 113.805209 295.214835 
L 114.780147 294.664585 
L 115.755086 293.819678 
L 116.730025 292.682187 
L 117.704963 291.254901 
L 119.004881 288.907214 
L 120.304799 286.060876 
L 121.604717 282.728296 
L 123.229615 277.901124 
L 124.854513 272.369926 
L 126.80439 264.856538 
L 128.754267 256.457504 
L 131.029124 245.649584 
L 133.62896 232.144812 
L 136.553776 215.764687 
L 140.45353 192.576304 
L 151.177854 127.975168 
L 154.10267 111.960209 
L 156.702506 98.871934 
L 158.977363 88.493527 
L 160.92724 80.506473 
L 162.877117 73.441274 
L 164.502015 68.308066 
L 166.126912 63.898272 
L 167.42683 60.911647 
L 168.726749 58.420348 
L 170.026667 56.435235 
L 171.001605 55.283875 
L 171.976544 54.424983 
L 172.951482 53.860666 
L 173.926421 53.592307 
L 174.90136 53.620564 
L 175.876298 53.945369 
L 176.851237 54.565925 
L 177.826175 55.48071 
L 178.801114 56.687479 
L 180.101032 58.745487 
L 181.40095 61.308262 
L 182.700868 64.364634 
L 184.325766 68.858719 
L 185.950663 74.072467 
L 187.900541 81.228594 
L 189.850418 89.299495 
L 192.125274 99.765683 
L 194.725111 112.939618 
L 197.649926 129.030487 
L 201.224701 150.021199 
L 214.223882 227.835256 
L 217.148698 243.322364 
L 219.748534 255.825809 
L 222.023391 265.611482 
L 223.973268 273.036538 
L 225.598165 278.489094 
L 227.223063 283.233621 
L 228.847961 287.237804 
L 230.147879 289.889605 
L 231.447797 292.038471 
L 232.422735 293.314351 
L 233.397674 294.298887 
L 234.372613 294.989662 
L 235.347551 295.384983 
L 236.32249 295.483881 
L 237.297428 295.286113 
L 238.272367 294.792163 
L 239.247305 294.003244 
L 240.222244 292.92129 
L 241.197183 291.548955 
L 242.497101 289.27339 
L 243.797019 286.497578 
L 245.096937 283.233621 
L 246.721835 278.489094 
L 248.346732 273.036538 
L 250.296609 265.611482 
L 252.246486 257.293378 
L 254.521343 246.569467 
L 257.121179 233.14562 
L 260.045995 216.835637 
L 263.945749 193.703872 
L 274.995053 127.186392 
L 277.919869 111.229302 
L 280.519705 98.206036 
L 282.794562 87.894072 
L 284.744439 79.970371 
L 286.694316 72.97378 
L 288.319214 67.901278 
L 289.944111 63.554959 
L 291.244029 60.62082 
L 292.543948 58.183274 
L 293.843866 56.252948 
L 294.818804 55.143213 
L 295.793743 54.326291 
L 296.768681 53.804186 
L 297.74362 53.578177 
L 298.718559 53.64882 
L 299.693497 54.015941 
L 300.668436 54.678639 
L 301.643374 55.63529 
L 302.618313 56.883547 
L 303.918231 58.996105 
L 305.218149 61.612339 
L 306.518067 64.720843 
L 308.142965 69.277884 
L 309.767862 74.551733 
L 311.71774 81.775638 
L 313.667617 89.908953 
L 315.942473 100.440366 
L 318.54231 113.677777 
L 321.467125 129.82464 
L 325.0419 150.859927 
L 337.716102 226.80853 
L 340.640917 242.380688 
L 343.240753 254.977224 
L 345.51561 264.856538 
L 347.465487 272.369926 
L 349.415364 278.924003 
L 351.040262 283.606267 
L 352.66516 287.545651 
L 353.965078 290.14408 
L 355.264996 292.238466 
L 356.239934 293.472901 
L 357.214873 294.415601 
L 358.189812 295.064256 
L 359.16475 295.417273 
L 360.139689 295.473788 
L 361.114627 295.233661 
L 362.089566 294.697482 
L 363.064505 293.866566 
L 364.039443 292.742949 
L 365.014382 291.32939 
L 366.3143 288.999714 
L 367.614218 286.170984 
L 368.914136 282.855532 
L 370.539034 278.048981 
L 372.163931 272.537398 
L 374.113808 265.04603 
L 376.063686 256.667159 
L 378.338542 245.880152 
L 380.938378 232.395498 
L 383.863194 216.032772 
L 387.762948 192.85835 
L 398.487273 128.238613 
L 398.487273 128.238613 
" clip-path="url(#pe625e163ba)" style="fill: none; stroke: #e377c2; stroke-width: 1.5; stroke-linecap: square"/>
   </g>
   <g id="line2d_32">
    <path d="M 73.832727 150.929876 
L 84.882031 228.069882 
L 87.481867 244.082971 
L 89.756724 256.754381 
L 91.706601 266.435646 
L 93.331499 273.571707 
L 94.956396 279.789833 
L 96.581294 285.032395 
L 97.881212 288.49107 
L 99.18113 291.273584 
L 100.156069 292.906654 
L 101.131007 294.144561 
L 102.105946 294.983173 
L 102.755905 295.31898 
L 103.405864 295.475552 
L 104.055823 295.452657 
L 104.705782 295.250329 
L 105.355741 294.868869 
L 106.33068 293.962115 
L 107.305618 292.656675 
L 108.280557 290.956907 
L 109.255495 288.868485 
L 110.555414 285.491582 
L 111.855332 281.456314 
L 113.480229 275.523238 
L 115.105127 268.654141 
L 117.055004 259.265887 
L 119.004881 248.747116 
L 121.279738 235.23434 
L 123.879574 218.457124 
L 127.454349 193.774289 
L 137.203735 125.420372 
L 139.803571 109.035752 
L 142.078428 95.959918 
L 144.028305 85.878839 
L 145.978182 76.980461 
L 147.603079 70.554757 
L 149.227977 65.092675 
L 150.527895 61.451149 
L 151.827813 58.480525 
L 152.802752 56.703593 
L 153.77769 55.319974 
L 154.752629 54.334286 
L 155.727568 53.749819 
L 156.377527 53.584095 
L 157.027486 53.597832 
L 157.677445 53.79101 
L 158.327404 54.163342 
L 159.302342 55.056475 
L 160.277281 56.348418 
L 161.252219 58.034859 
L 162.227158 60.110169 
L 163.527076 63.469998 
L 164.826994 67.488753 
L 166.451892 73.402123 
L 168.07679 80.252726 
L 170.026667 89.620624 
L 171.976544 100.121302 
L 174.2514 113.616146 
L 176.851237 130.377453 
L 180.426011 155.047037 
L 190.175397 223.418267 
L 192.775233 239.820244 
L 195.05009 252.91517 
L 196.999967 263.015242 
L 198.949844 271.934774 
L 200.574742 278.379553 
L 202.19964 283.861838 
L 203.499558 287.520213 
L 204.799476 290.508188 
L 205.774414 292.298401 
L 206.749353 293.695482 
L 207.724292 294.694766 
L 208.69923 295.292919 
L 209.349189 295.467796 
L 209.999148 295.463217 
L 210.649107 295.279189 
L 211.299066 294.915986 
L 212.274005 294.036479 
L 213.248943 292.758037 
L 214.223882 291.084929 
L 215.198821 289.022739 
L 216.498739 285.679997 
L 217.798657 281.677772 
L 219.423554 275.78413 
L 221.048452 268.952049 
L 222.998329 259.604541 
L 224.948206 249.121998 
L 227.223063 235.645136 
L 229.822899 218.899803 
L 233.397674 194.243566 
L 243.14706 125.855286 
L 245.746896 109.436016 
L 248.021753 96.322049 
L 249.97163 86.203023 
L 251.921507 77.262372 
L 253.546405 70.798543 
L 255.171302 65.296076 
L 256.47122 61.620866 
L 257.771138 58.615552 
L 258.746077 56.812065 
L 259.721016 55.401528 
L 260.695954 54.388651 
L 261.670893 53.776813 
L 262.320852 53.592786 
L 262.970811 53.588207 
L 263.62077 53.763083 
L 264.270729 54.117155 
L 265.245667 54.983034 
L 266.220606 56.247969 
L 267.195545 57.907738 
L 268.170483 59.956799 
L 269.470401 63.282441 
L 270.770319 67.268122 
L 272.395217 73.142012 
L 274.020115 79.955547 
L 275.969992 89.282626 
L 277.919869 99.746995 
L 280.194726 113.205821 
L 282.794562 129.935116 
L 286.369337 154.577912 
L 296.118722 222.982976 
L 298.718559 239.419476 
L 300.993415 252.552434 
L 302.943292 262.690375 
L 304.89317 271.65211 
L 306.518067 278.134965 
L 308.142965 283.657592 
L 309.442883 287.349623 
L 310.742801 290.372265 
L 311.71774 292.189019 
L 312.692678 293.613007 
L 313.667617 294.639473 
L 314.642555 295.264992 
L 315.292514 295.458171 
L 315.942473 295.471907 
L 316.592432 295.306183 
L 317.242391 294.961243 
L 318.21733 294.108996 
L 319.192269 292.857572 
L 320.167207 291.21115 
L 321.142146 289.175225 
L 322.442064 285.866695 
L 323.741982 281.897575 
L 325.0419 277.291414 
L 326.666798 270.679855 
L 328.291695 263.177163 
L 330.241572 253.096084 
L 332.516429 240.02025 
L 335.116265 223.63563 
L 338.366061 201.566632 
L 344.865651 155.281713 
L 348.765405 128.436366 
L 351.690221 109.837286 
L 353.965078 96.685388 
L 355.914955 86.528571 
L 357.864832 77.545787 
L 359.48973 71.043932 
L 361.114627 65.501165 
L 362.414545 61.792328 
L 363.714464 58.75237 
L 364.689402 56.922355 
L 365.664341 55.484923 
L 366.639279 54.444872 
L 367.614218 53.805673 
L 368.264177 53.603345 
L 368.914136 53.58045 
L 369.564095 53.737022 
L 370.214054 54.072829 
L 371.188993 54.911441 
L 372.163931 56.149348 
L 373.13887 57.782418 
L 374.113808 59.805199 
L 375.413726 63.096603 
L 376.713645 67.049148 
L 378.013563 71.639382 
L 379.63846 78.232087 
L 381.263358 85.717261 
L 383.213235 95.779308 
L 385.488092 108.835999 
L 388.087928 125.203199 
L 391.337723 147.257696 
L 397.512334 191.235239 
L 398.487273 198.126127 
L 398.487273 198.126127 
" clip-path="url(#pe625e163ba)" style="fill: none; stroke: #7f7f7f; stroke-width: 1.5; stroke-linecap: square"/>
   </g>
   <g id="patch_3">
    <path d="M 57.6 307.584 
L 57.6 41.472 
" style="fill: none; stroke: #000000; stroke-width: 0.8; stroke-linejoin: miter; stroke-linecap: square"/>
   </g>
   <g id="patch_4">
    <path d="M 414.72 307.584 
L 414.72 41.472 
" style="fill: none; stroke: #000000; stroke-width: 0.8; stroke-linejoin: miter; stroke-linecap: square"/>
   </g>
   <g id="patch_5">
    <path d="M 57.6 307.584 
L 414.72 307.584 
" style="fill: none; stroke: #000000; stroke-width: 0.8; stroke-linejoin: miter; stroke-linecap: square"/>
   </g>
   <g id="patch_6">
    <path d="M 57.6 41.472 
L 414.72 41.472 
" style="fill: none; stroke: #000000; stroke-width: 0.8; stroke-linejoin: miter; stroke-linecap: square"/>
   </g>
  </g>
 </g>
 <defs>
  <clipPath id="pe625e163ba">
   <rect x="57.6" y="41.472" width="357.12" height="266.112"/>
  </clipPath>
 </defs>
</svg>
