<?xml version="1.0" encoding="utf-8" standalone="no"?>
<!DOCTYPE svg PUBLIC "-//W3C//DTD SVG 1.1//EN"
  "http://www.w3.org/Graphics/SVG/1.1/DTD/svg11.dtd">
<svg xmlns:xlink="http://www.w3.org/1999/xlink" width="460.8pt" height="345.6pt" viewBox="0 0 460.8 345.6" xmlns="http://www.w3.org/2000/svg" version="1.1">
 <metadata>
  <rdf:RDF xmlns:dc="http://purl.org/dc/elements/1.1/" xmlns:cc="http://creativecommons.org/ns#" xmlns:rdf="http://www.w3.org/1999/02/22-rdf-syntax-ns#">
   <cc:Work>
    <dc:type rdf:resource="http://purl.org/dc/dcmitype/StillImage"/>
    <dc:date>2024-12-11T13:29:09.563534</dc:date>
    <dc:format>image/svg+xml</dc:format>
    <dc:creator>
     <cc:Agent>
      <dc:title>Matplotlib v3.9.3, https://matplotlib.org/</dc:title>
     </cc:Agent>
    </dc:creator>
   </cc:Work>
  </rdf:RDF>
 </metadata>
 <defs>
  <style type="text/css">*{stroke-linejoin: round; stroke-linecap: butt}</style>
 </defs>
 <g id="figure_1">
  <g id="patch_1">
   <path d="M 0 345.6 
L 460.8 345.6 
L 460.8 0 
L 0 0 
z
" style="fill: #ffffff"/>
  </g>
  <g id="axes_1">
   <g id="patch_2">
    <path d="M 57.6 307.584 
L 414.72 307.584 
L 414.72 41.472 
L 57.6 41.472 
z
" style="fill: #ffffff"/>
   </g>
   <g id="matplotlib.axis_1">
    <g id="xtick_1">
     <g id="line2d_1">
      <defs>
       <path id="m77269f9007" d="M 0 0 
L 0 3.5 
" style="stroke: #000000; stroke-width: 0.8"/>
      </defs>
      <g>
       <use xlink:href="#m77269f9007" x="73.832727" y="307.584" style="stroke: #000000; stroke-width: 0.8"/>
      </g>
     </g>
     <g id="text_1">
      <!-- 0 -->
      <g transform="translate(70.651477 322.182437) scale(0.1 -0.1)">
       <defs>
        <path id="DejaVuSans-30" d="M 2034 4250 
Q 1547 4250 1301 3770 
Q 1056 3291 1056 2328 
Q 1056 1369 1301 889 
Q 1547 409 2034 409 
Q 2525 409 2770 889 
Q 3016 1369 3016 2328 
Q 3016 3291 2770 3770 
Q 2525 4250 2034 4250 
z
M 2034 4750 
Q 2819 4750 3233 4129 
Q 3647 3509 3647 2328 
Q 3647 1150 3233 529 
Q 2819 -91 2034 -91 
Q 1250 -91 836 529 
Q 422 1150 422 2328 
Q 422 3509 836 4129 
Q 1250 4750 2034 4750 
z
" transform="scale(0.015625)"/>
       </defs>
       <use xlink:href="#DejaVuSans-30"/>
      </g>
     </g>
    </g>
    <g id="xtick_2">
     <g id="line2d_2">
      <g>
       <use xlink:href="#m77269f9007" x="120.211948" y="307.584" style="stroke: #000000; stroke-width: 0.8"/>
      </g>
     </g>
     <g id="text_2">
      <!-- 1 -->
      <g transform="translate(117.030698 322.182437) scale(0.1 -0.1)">
       <defs>
        <path id="DejaVuSans-31" d="M 794 531 
L 1825 531 
L 1825 4091 
L 703 3866 
L 703 4441 
L 1819 4666 
L 2450 4666 
L 2450 531 
L 3481 531 
L 3481 0 
L 794 0 
L 794 531 
z
" transform="scale(0.015625)"/>
       </defs>
       <use xlink:href="#DejaVuSans-31"/>
      </g>
     </g>
    </g>
    <g id="xtick_3">
     <g id="line2d_3">
      <g>
       <use xlink:href="#m77269f9007" x="166.591169" y="307.584" style="stroke: #000000; stroke-width: 0.8"/>
      </g>
     </g>
     <g id="text_3">
      <!-- 2 -->
      <g transform="translate(163.409919 322.182437) scale(0.1 -0.1)">
       <defs>
        <path id="DejaVuSans-32" d="M 1228 531 
L 3431 531 
L 3431 0 
L 469 0 
L 469 531 
Q 828 903 1448 1529 
Q 2069 2156 2228 2338 
Q 2531 2678 2651 2914 
Q 2772 3150 2772 3378 
Q 2772 3750 2511 3984 
Q 2250 4219 1831 4219 
Q 1534 4219 1204 4116 
Q 875 4013 500 3803 
L 500 4441 
Q 881 4594 1212 4672 
Q 1544 4750 1819 4750 
Q 2544 4750 2975 4387 
Q 3406 4025 3406 3419 
Q 3406 3131 3298 2873 
Q 3191 2616 2906 2266 
Q 2828 2175 2409 1742 
Q 1991 1309 1228 531 
z
" transform="scale(0.015625)"/>
       </defs>
       <use xlink:href="#DejaVuSans-32"/>
      </g>
     </g>
    </g>
    <g id="xtick_4">
     <g id="line2d_4">
      <g>
       <use xlink:href="#m77269f9007" x="212.97039" y="307.584" style="stroke: #000000; stroke-width: 0.8"/>
      </g>
     </g>
     <g id="text_4">
      <!-- 3 -->
      <g transform="translate(209.78914 322.182437) scale(0.1 -0.1)">
       <defs>
        <path id="DejaVuSans-33" d="M 2597 2516 
Q 3050 2419 3304 2112 
Q 3559 1806 3559 1356 
Q 3559 666 3084 287 
Q 2609 -91 1734 -91 
Q 1441 -91 1130 -33 
Q 819 25 488 141 
L 488 750 
Q 750 597 1062 519 
Q 1375 441 1716 441 
Q 2309 441 2620 675 
Q 2931 909 2931 1356 
Q 2931 1769 2642 2001 
Q 2353 2234 1838 2234 
L 1294 2234 
L 1294 2753 
L 1863 2753 
Q 2328 2753 2575 2939 
Q 2822 3125 2822 3475 
Q 2822 3834 2567 4026 
Q 2313 4219 1838 4219 
Q 1578 4219 1281 4162 
Q 984 4106 628 3988 
L 628 4550 
Q 988 4650 1302 4700 
Q 1616 4750 1894 4750 
Q 2613 4750 3031 4423 
Q 3450 4097 3450 3541 
Q 3450 3153 3228 2886 
Q 3006 2619 2597 2516 
z
" transform="scale(0.015625)"/>
       </defs>
       <use xlink:href="#DejaVuSans-33"/>
      </g>
     </g>
    </g>
    <g id="xtick_5">
     <g id="line2d_5">
      <g>
       <use xlink:href="#m77269f9007" x="259.34961" y="307.584" style="stroke: #000000; stroke-width: 0.8"/>
      </g>
     </g>
     <g id="text_5">
      <!-- 4 -->
      <g transform="translate(256.16836 322.182437) scale(0.1 -0.1)">
       <defs>
        <path id="DejaVuSans-34" d="M 2419 4116 
L 825 1625 
L 2419 1625 
L 2419 4116 
z
M 2253 4666 
L 3047 4666 
L 3047 1625 
L 3713 1625 
L 3713 1100 
L 3047 1100 
L 3047 0 
L 2419 0 
L 2419 1100 
L 313 1100 
L 313 1709 
L 2253 4666 
z
" transform="scale(0.015625)"/>
       </defs>
       <use xlink:href="#DejaVuSans-34"/>
      </g>
     </g>
    </g>
    <g id="xtick_6">
     <g id="line2d_6">
      <g>
       <use xlink:href="#m77269f9007" x="305.728831" y="307.584" style="stroke: #000000; stroke-width: 0.8"/>
      </g>
     </g>
     <g id="text_6">
      <!-- 5 -->
      <g transform="translate(302.547581 322.182437) scale(0.1 -0.1)">
       <defs>
        <path id="DejaVuSans-35" d="M 691 4666 
L 3169 4666 
L 3169 4134 
L 1269 4134 
L 1269 2991 
Q 1406 3038 1543 3061 
Q 1681 3084 1819 3084 
Q 2600 3084 3056 2656 
Q 3513 2228 3513 1497 
Q 3513 744 3044 326 
Q 2575 -91 1722 -91 
Q 1428 -91 1123 -41 
Q 819 9 494 109 
L 494 744 
Q 775 591 1075 516 
Q 1375 441 1709 441 
Q 2250 441 2565 725 
Q 2881 1009 2881 1497 
Q 2881 1984 2565 2268 
Q 2250 2553 1709 2553 
Q 1456 2553 1204 2497 
Q 953 2441 691 2322 
L 691 4666 
z
" transform="scale(0.015625)"/>
       </defs>
       <use xlink:href="#DejaVuSans-35"/>
      </g>
     </g>
    </g>
    <g id="xtick_7">
     <g id="line2d_7">
      <g>
       <use xlink:href="#m77269f9007" x="352.108052" y="307.584" style="stroke: #000000; stroke-width: 0.8"/>
      </g>
     </g>
     <g id="text_7">
      <!-- 6 -->
      <g transform="translate(348.926802 322.182437) scale(0.1 -0.1)">
       <defs>
        <path id="DejaVuSans-36" d="M 2113 2584 
Q 1688 2584 1439 2293 
Q 1191 2003 1191 1497 
Q 1191 994 1439 701 
Q 1688 409 2113 409 
Q 2538 409 2786 701 
Q 3034 994 3034 1497 
Q 3034 2003 2786 2293 
Q 2538 2584 2113 2584 
z
M 3366 4563 
L 3366 3988 
Q 3128 4100 2886 4159 
Q 2644 4219 2406 4219 
Q 1781 4219 1451 3797 
Q 1122 3375 1075 2522 
Q 1259 2794 1537 2939 
Q 1816 3084 2150 3084 
Q 2853 3084 3261 2657 
Q 3669 2231 3669 1497 
Q 3669 778 3244 343 
Q 2819 -91 2113 -91 
Q 1303 -91 875 529 
Q 447 1150 447 2328 
Q 447 3434 972 4092 
Q 1497 4750 2381 4750 
Q 2619 4750 2861 4703 
Q 3103 4656 3366 4563 
z
" transform="scale(0.015625)"/>
       </defs>
       <use xlink:href="#DejaVuSans-36"/>
      </g>
     </g>
    </g>
    <g id="xtick_8">
     <g id="line2d_8">
      <g>
       <use xlink:href="#m77269f9007" x="398.487273" y="307.584" style="stroke: #000000; stroke-width: 0.8"/>
      </g>
     </g>
     <g id="text_8">
      <!-- 7 -->
      <g transform="translate(395.306023 322.182437) scale(0.1 -0.1)">
       <defs>
        <path id="DejaVuSans-37" d="M 525 4666 
L 3525 4666 
L 3525 4397 
L 1831 0 
L 1172 0 
L 2766 4134 
L 525 4134 
L 525 4666 
z
" transform="scale(0.015625)"/>
       </defs>
       <use xlink:href="#DejaVuSans-37"/>
      </g>
     </g>
    </g>
   </g>
   <g id="matplotlib.axis_2">
    <g id="ytick_1">
     <g id="line2d_9">
      <defs>
       <path id="m9e334560fe" d="M 0 0 
L -3.5 0 
" style="stroke: #000000; stroke-width: 0.8"/>
      </defs>
      <g>
       <use xlink:href="#m9e334560fe" x="57.6" y="174.528095" style="stroke: #000000; stroke-width: 0.8"/>
      </g>
     </g>
     <g id="text_9">
      <!-- 0.000 -->
      <g transform="translate(21.971875 178.327313) scale(0.1 -0.1)">
       <defs>
        <path id="DejaVuSans-2e" d="M 684 794 
L 1344 794 
L 1344 0 
L 684 0 
L 684 794 
z
" transform="scale(0.015625)"/>
       </defs>
       <use xlink:href="#DejaVuSans-30"/>
       <use xlink:href="#DejaVuSans-2e" x="63.623047"/>
       <use xlink:href="#DejaVuSans-30" x="95.410156"/>
       <use xlink:href="#DejaVuSans-30" x="159.033203"/>
       <use xlink:href="#DejaVuSans-30" x="222.65625"/>
      </g>
     </g>
    </g>
    <g id="ytick_2">
     <g id="line2d_10">
      <g>
       <use xlink:href="#m9e334560fe" x="57.6" y="53.568" style="stroke: #000000; stroke-width: 0.8"/>
      </g>
     </g>
     <g id="text_10">
      <!-- 1.000 -->
      <g transform="translate(21.971875 57.367219) scale(0.1 -0.1)">
       <use xlink:href="#DejaVuSans-31"/>
       <use xlink:href="#DejaVuSans-2e" x="63.623047"/>
       <use xlink:href="#DejaVuSans-30" x="95.410156"/>
       <use xlink:href="#DejaVuSans-30" x="159.033203"/>
       <use xlink:href="#DejaVuSans-30" x="222.65625"/>
      </g>
     </g>
    </g>
    <g id="ytick_3">
     <g id="line2d_11">
      <g>
       <use xlink:href="#m9e334560fe" x="57.6" y="55.866242" style="stroke: #000000; stroke-width: 0.8"/>
      </g>
     </g>
     <g id="text_11">
      <!-- 0.981 -->
      <g transform="translate(21.971875 59.665461) scale(0.1 -0.1)">
       <defs>
        <path id="DejaVuSans-39" d="M 703 97 
L 703 672 
Q 941 559 1184 500 
Q 1428 441 1663 441 
Q 2288 441 2617 861 
Q 2947 1281 2994 2138 
Q 2813 1869 2534 1725 
Q 2256 1581 1919 1581 
Q 1219 1581 811 2004 
Q 403 2428 403 3163 
Q 403 3881 828 4315 
Q 1253 4750 1959 4750 
Q 2769 4750 3195 4129 
Q 3622 3509 3622 2328 
Q 3622 1225 3098 567 
Q 2575 -91 1691 -91 
Q 1453 -91 1209 -44 
Q 966 3 703 97 
z
M 1959 2075 
Q 2384 2075 2632 2365 
Q 2881 2656 2881 3163 
Q 2881 3666 2632 3958 
Q 2384 4250 1959 4250 
Q 1534 4250 1286 3958 
Q 1038 3666 1038 3163 
Q 1038 2656 1286 2365 
Q 1534 2075 1959 2075 
z
" transform="scale(0.015625)"/>
        <path id="DejaVuSans-38" d="M 2034 2216 
Q 1584 2216 1326 1975 
Q 1069 1734 1069 1313 
Q 1069 891 1326 650 
Q 1584 409 2034 409 
Q 2484 409 2743 651 
Q 3003 894 3003 1313 
Q 3003 1734 2745 1975 
Q 2488 2216 2034 2216 
z
M 1403 2484 
Q 997 2584 770 2862 
Q 544 3141 544 3541 
Q 544 4100 942 4425 
Q 1341 4750 2034 4750 
Q 2731 4750 3128 4425 
Q 3525 4100 3525 3541 
Q 3525 3141 3298 2862 
Q 3072 2584 2669 2484 
Q 3125 2378 3379 2068 
Q 3634 1759 3634 1313 
Q 3634 634 3220 271 
Q 2806 -91 2034 -91 
Q 1263 -91 848 271 
Q 434 634 434 1313 
Q 434 1759 690 2068 
Q 947 2378 1403 2484 
z
M 1172 3481 
Q 1172 3119 1398 2916 
Q 1625 2713 2034 2713 
Q 2441 2713 2670 2916 
Q 2900 3119 2900 3481 
Q 2900 3844 2670 4047 
Q 2441 4250 2034 4250 
Q 1625 4250 1398 4047 
Q 1172 3844 1172 3481 
z
" transform="scale(0.015625)"/>
       </defs>
       <use xlink:href="#DejaVuSans-30"/>
       <use xlink:href="#DejaVuSans-2e" x="63.623047"/>
       <use xlink:href="#DejaVuSans-39" x="95.410156"/>
       <use xlink:href="#DejaVuSans-38" x="159.033203"/>
       <use xlink:href="#DejaVuSans-31" x="222.65625"/>
      </g>
     </g>
    </g>
    <g id="ytick_4">
     <g id="line2d_12">
      <g>
       <use xlink:href="#m9e334560fe" x="57.6" y="107.274282" style="stroke: #000000; stroke-width: 0.8"/>
      </g>
     </g>
     <g id="text_12">
      <!-- 0.556 -->
      <g transform="translate(21.971875 111.073501) scale(0.1 -0.1)">
       <use xlink:href="#DejaVuSans-30"/>
       <use xlink:href="#DejaVuSans-2e" x="63.623047"/>
       <use xlink:href="#DejaVuSans-35" x="95.410156"/>
       <use xlink:href="#DejaVuSans-35" x="159.033203"/>
       <use xlink:href="#DejaVuSans-36" x="222.65625"/>
      </g>
     </g>
    </g>
    <g id="ytick_5">
     <g id="line2d_13">
      <g>
       <use xlink:href="#m9e334560fe" x="57.6" y="74.010256" style="stroke: #000000; stroke-width: 0.8"/>
      </g>
     </g>
     <g id="text_13">
      <!-- 0.831 -->
      <g transform="translate(21.971875 77.809475) scale(0.1 -0.1)">
       <use xlink:href="#DejaVuSans-30"/>
       <use xlink:href="#DejaVuSans-2e" x="63.623047"/>
       <use xlink:href="#DejaVuSans-38" x="95.410156"/>
       <use xlink:href="#DejaVuSans-33" x="159.033203"/>
       <use xlink:href="#DejaVuSans-31" x="222.65625"/>
      </g>
     </g>
    </g>
    <g id="ytick_6">
     <g id="line2d_14">
      <g>
       <use xlink:href="#m9e334560fe" x="57.6" y="150.940876" style="stroke: #000000; stroke-width: 0.8"/>
      </g>
     </g>
     <g id="text_14">
      <!-- 0.195 -->
      <g transform="translate(21.971875 154.740095) scale(0.1 -0.1)">
       <use xlink:href="#DejaVuSans-30"/>
       <use xlink:href="#DejaVuSans-2e" x="63.623047"/>
       <use xlink:href="#DejaVuSans-31" x="95.410156"/>
       <use xlink:href="#DejaVuSans-39" x="159.033203"/>
       <use xlink:href="#DejaVuSans-35" x="222.65625"/>
      </g>
     </g>
    </g>
    <g id="ytick_7">
     <g id="line2d_15">
      <g>
       <use xlink:href="#m9e334560fe" x="57.6" y="198.115313" style="stroke: #000000; stroke-width: 0.8"/>
      </g>
     </g>
     <g id="text_15">
      <!-- −0.195 -->
      <g transform="translate(13.592188 201.914532) scale(0.1 -0.1)">
       <defs>
        <path id="DejaVuSans-2212" d="M 678 2272 
L 4684 2272 
L 4684 1741 
L 678 1741 
L 678 2272 
z
" transform="scale(0.015625)"/>
       </defs>
       <use xlink:href="#DejaVuSans-2212"/>
       <use xlink:href="#DejaVuSans-30" x="83.789062"/>
       <use xlink:href="#DejaVuSans-2e" x="147.412109"/>
       <use xlink:href="#DejaVuSans-31" x="179.199219"/>
       <use xlink:href="#DejaVuSans-39" x="242.822266"/>
       <use xlink:href="#DejaVuSans-35" x="306.445312"/>
      </g>
     </g>
    </g>
    <g id="ytick_8">
     <g id="line2d_16">
      <g>
       <use xlink:href="#m9e334560fe" x="57.6" y="241.781907" style="stroke: #000000; stroke-width: 0.8"/>
      </g>
     </g>
     <g id="text_16">
      <!-- −0.556 -->
      <g transform="translate(13.592188 245.581126) scale(0.1 -0.1)">
       <use xlink:href="#DejaVuSans-2212"/>
       <use xlink:href="#DejaVuSans-30" x="83.789062"/>
       <use xlink:href="#DejaVuSans-2e" x="147.412109"/>
       <use xlink:href="#DejaVuSans-35" x="179.199219"/>
       <use xlink:href="#DejaVuSans-35" x="242.822266"/>
       <use xlink:href="#DejaVuSans-36" x="306.445312"/>
      </g>
     </g>
    </g>
    <g id="ytick_9">
     <g id="line2d_17">
      <g>
       <use xlink:href="#m9e334560fe" x="57.6" y="275.045933" style="stroke: #000000; stroke-width: 0.8"/>
      </g>
     </g>
     <g id="text_17">
      <!-- −0.831 -->
      <g transform="translate(13.592188 278.845152) scale(0.1 -0.1)">
       <use xlink:href="#DejaVuSans-2212"/>
       <use xlink:href="#DejaVuSans-30" x="83.789062"/>
       <use xlink:href="#DejaVuSans-2e" x="147.412109"/>
       <use xlink:href="#DejaVuSans-38" x="179.199219"/>
       <use xlink:href="#DejaVuSans-33" x="242.822266"/>
       <use xlink:href="#DejaVuSans-31" x="306.445312"/>
      </g>
     </g>
    </g>
    <g id="ytick_10">
     <g id="line2d_18">
      <g>
       <use xlink:href="#m9e334560fe" x="57.6" y="293.189947" style="stroke: #000000; stroke-width: 0.8"/>
      </g>
     </g>
     <g id="text_18">
      <!-- −0.981 -->
      <g transform="translate(13.592188 296.989166) scale(0.1 -0.1)">
       <use xlink:href="#DejaVuSans-2212"/>
       <use xlink:href="#DejaVuSans-30" x="83.789062"/>
       <use xlink:href="#DejaVuSans-2e" x="147.412109"/>
       <use xlink:href="#DejaVuSans-39" x="179.199219"/>
       <use xlink:href="#DejaVuSans-38" x="242.822266"/>
       <use xlink:href="#DejaVuSans-31" x="306.445312"/>
      </g>
     </g>
    </g>
    <g id="ytick_11">
     <g id="line2d_19">
      <g>
       <use xlink:href="#m9e334560fe" x="57.6" y="62.760967" style="stroke: #000000; stroke-width: 0.8"/>
      </g>
     </g>
     <g id="text_19">
      <!-- 0.924 -->
      <g transform="translate(21.971875 66.560186) scale(0.1 -0.1)">
       <use xlink:href="#DejaVuSans-30"/>
       <use xlink:href="#DejaVuSans-2e" x="63.623047"/>
       <use xlink:href="#DejaVuSans-39" x="95.410156"/>
       <use xlink:href="#DejaVuSans-32" x="159.033203"/>
       <use xlink:href="#DejaVuSans-34" x="222.65625"/>
      </g>
     </g>
    </g>
    <g id="ytick_12">
     <g id="line2d_20">
      <g>
       <use xlink:href="#m9e334560fe" x="57.6" y="128.200378" style="stroke: #000000; stroke-width: 0.8"/>
      </g>
     </g>
     <g id="text_20">
      <!-- 0.383 -->
      <g transform="translate(21.971875 131.999597) scale(0.1 -0.1)">
       <use xlink:href="#DejaVuSans-30"/>
       <use xlink:href="#DejaVuSans-2e" x="63.623047"/>
       <use xlink:href="#DejaVuSans-33" x="95.410156"/>
       <use xlink:href="#DejaVuSans-38" x="159.033203"/>
       <use xlink:href="#DejaVuSans-33" x="222.65625"/>
      </g>
     </g>
    </g>
    <g id="ytick_13">
     <g id="line2d_21">
      <g>
       <use xlink:href="#m9e334560fe" x="57.6" y="286.295222" style="stroke: #000000; stroke-width: 0.8"/>
      </g>
     </g>
     <g id="text_21">
      <!-- −0.924 -->
      <g transform="translate(13.592188 290.094441) scale(0.1 -0.1)">
       <use xlink:href="#DejaVuSans-2212"/>
       <use xlink:href="#DejaVuSans-30" x="83.789062"/>
       <use xlink:href="#DejaVuSans-2e" x="147.412109"/>
       <use xlink:href="#DejaVuSans-39" x="179.199219"/>
       <use xlink:href="#DejaVuSans-32" x="242.822266"/>
       <use xlink:href="#DejaVuSans-34" x="306.445312"/>
      </g>
     </g>
    </g>
    <g id="ytick_14">
     <g id="line2d_22">
      <g>
       <use xlink:href="#m9e334560fe" x="57.6" y="220.855811" style="stroke: #000000; stroke-width: 0.8"/>
      </g>
     </g>
     <g id="text_22">
      <!-- −0.383 -->
      <g transform="translate(13.592188 224.65503) scale(0.1 -0.1)">
       <use xlink:href="#DejaVuSans-2212"/>
       <use xlink:href="#DejaVuSans-30" x="83.789062"/>
       <use xlink:href="#DejaVuSans-2e" x="147.412109"/>
       <use xlink:href="#DejaVuSans-33" x="179.199219"/>
       <use xlink:href="#DejaVuSans-38" x="242.822266"/>
       <use xlink:href="#DejaVuSans-33" x="306.445312"/>
      </g>
     </g>
    </g>
   </g>
   <g id="line2d_23">
    <path d="M 73.832727 53.568 
L 398.487273 53.568 
L 398.487273 53.568 
" clip-path="url(#p337beb086b)" style="fill: none; stroke: #1f77b4; stroke-width: 1.5; stroke-linecap: square"/>
   </g>
   <g id="line2d_24">
    <defs>
     <path id="m2017f9e15c" d="M 0 1.5 
C 0.397805 1.5 0.77937 1.341951 1.06066 1.06066 
C 1.341951 0.77937 1.5 0.397805 1.5 0 
C 1.5 -0.397805 1.341951 -0.77937 1.06066 -1.06066 
C 0.77937 -1.341951 0.397805 -1.5 0 -1.5 
C -0.397805 -1.5 -0.77937 -1.341951 -1.06066 -1.06066 
C -1.341951 -0.77937 -1.5 -0.397805 -1.5 0 
C -1.5 0.397805 -1.341951 0.77937 -1.06066 1.06066 
C -0.77937 1.341951 -0.397805 1.5 0 1.5 
z
" style="stroke: #000000"/>
    </defs>
    <g clip-path="url(#p337beb086b)">
     <use xlink:href="#m2017f9e15c" x="73.832727" y="53.568" style="stroke: #000000"/>
     <use xlink:href="#m2017f9e15c" x="120.211948" y="53.568" style="stroke: #000000"/>
     <use xlink:href="#m2017f9e15c" x="166.591169" y="53.568" style="stroke: #000000"/>
     <use xlink:href="#m2017f9e15c" x="212.97039" y="53.568" style="stroke: #000000"/>
     <use xlink:href="#m2017f9e15c" x="259.34961" y="53.568" style="stroke: #000000"/>
     <use xlink:href="#m2017f9e15c" x="305.728831" y="53.568" style="stroke: #000000"/>
     <use xlink:href="#m2017f9e15c" x="352.108052" y="53.568" style="stroke: #000000"/>
     <use xlink:href="#m2017f9e15c" x="398.487273" y="53.568" style="stroke: #000000"/>
    </g>
   </g>
   <g id="line2d_25">
    <path d="M 73.832727 55.892214 
L 79.0324 57.045777 
L 84.232072 58.42702 
L 89.431744 60.033268 
L 94.631417 61.861407 
L 100.156069 64.042962 
L 105.680721 66.466234 
L 111.205373 69.125922 
L 117.055004 72.193271 
L 122.904636 75.511615 
L 129.079247 79.277608 
L 135.253857 83.303892 
L 141.753448 87.811183 
L 148.578018 92.826169 
L 155.402588 98.113887 
L 162.552138 103.926678 
L 170.351646 110.562131 
L 178.476134 117.77016 
L 187.250581 125.855342 
L 196.999967 135.151836 
L 208.049271 146.008571 
L 221.698411 159.753732 
L 270.12036 208.832465 
L 280.844685 219.209399 
L 290.269091 228.027376 
L 299.043538 235.932273 
L 307.168026 242.950491 
L 314.642555 249.122149 
L 321.792105 254.746318 
L 328.616675 259.840977 
L 335.116265 264.428507 
L 341.615856 268.743832 
L 347.790467 272.57935 
L 353.965078 276.146922 
L 359.814709 279.27072 
L 365.664341 282.137618 
L 371.188993 284.603011 
L 376.713645 286.827584 
L 382.238296 288.80647 
L 387.437969 290.440633 
L 392.637641 291.850158 
L 397.837314 293.032312 
L 398.487273 293.163975 
L 398.487273 293.163975 
" clip-path="url(#p337beb086b)" style="fill: none; stroke: #ff7f0e; stroke-width: 1.5; stroke-linecap: square"/>
   </g>
   <g id="line2d_26">
    <g clip-path="url(#p337beb086b)">
     <use xlink:href="#m2017f9e15c" x="73.832727" y="55.866242" style="stroke: #000000"/>
     <use xlink:href="#m2017f9e15c" x="120.211948" y="74.010256" style="stroke: #000000"/>
     <use xlink:href="#m2017f9e15c" x="166.591169" y="107.274282" style="stroke: #000000"/>
     <use xlink:href="#m2017f9e15c" x="212.97039" y="150.940876" style="stroke: #000000"/>
     <use xlink:href="#m2017f9e15c" x="259.34961" y="198.115313" style="stroke: #000000"/>
     <use xlink:href="#m2017f9e15c" x="305.728831" y="241.781907" style="stroke: #000000"/>
     <use xlink:href="#m2017f9e15c" x="352.108052" y="275.045933" style="stroke: #000000"/>
     <use xlink:href="#m2017f9e15c" x="398.487273" y="293.189947" style="stroke: #000000"/>
    </g>
   </g>
   <g id="line2d_27">
    <path d="M 73.832727 62.775539 
L 76.757543 65.204346 
L 80.007338 68.21722 
L 83.257133 71.551988 
L 86.506929 75.198552 
L 90.081704 79.556694 
L 93.656478 84.262764 
L 97.556233 89.773179 
L 101.780966 96.158973 
L 106.0057 102.945718 
L 110.555414 110.663052 
L 115.755086 119.944073 
L 121.279738 130.266864 
L 127.779328 142.899939 
L 135.903817 159.211172 
L 161.902179 211.807319 
L 168.401769 224.221691 
L 173.926421 234.306768 
L 178.801114 242.773938 
L 183.350827 250.258397 
L 187.575561 256.806833 
L 191.800295 262.934315 
L 195.700049 268.189676 
L 199.274824 272.648912 
L 202.849599 276.748681 
L 206.099394 280.151145 
L 209.349189 283.233798 
L 212.274005 285.727012 
L 215.198821 287.94749 
L 218.123636 289.889787 
L 221.048452 291.549139 
L 223.648288 292.783277 
L 226.248124 293.788237 
L 228.847961 294.56207 
L 231.447797 295.103276 
L 234.047633 295.410808 
L 236.647469 295.484068 
L 239.247305 295.322915 
L 241.847142 294.927661 
L 244.446978 294.299072 
L 247.046814 293.438367 
L 249.64665 292.347213 
L 252.246486 291.027725 
L 255.171302 289.273572 
L 258.096118 287.237985 
L 261.020934 284.925956 
L 263.945749 282.343157 
L 267.195545 279.163536 
L 270.44534 275.667094 
L 274.020115 271.467743 
L 277.594889 266.913252 
L 281.494644 261.55932 
L 285.394398 255.825966 
L 289.619132 249.21569 
L 294.168845 241.670608 
L 299.043538 233.145758 
L 304.56819 223.00489 
L 310.742801 211.173482 
L 318.21733 196.328163 
L 329.266634 173.814872 
L 342.590794 146.771597 
L 349.740344 132.755437 
L 355.914955 121.135451 
L 361.114627 111.797558 
L 365.98932 103.4834 
L 370.539034 96.158973 
L 374.763767 89.773179 
L 378.663522 84.262764 
L 382.563276 79.145873 
L 386.138051 74.820172 
L 389.712826 70.859753 
L 392.962621 67.588587 
L 396.212416 64.641218 
L 398.487273 62.775539 
L 398.487273 62.775539 
" clip-path="url(#p337beb086b)" style="fill: none; stroke: #2ca02c; stroke-width: 1.5; stroke-linecap: square"/>
   </g>
   <g id="line2d_28">
    <g clip-path="url(#p337beb086b)">
     <use xlink:href="#m2017f9e15c" x="73.832727" y="62.760967" style="stroke: #000000"/>
     <use xlink:href="#m2017f9e15c" x="120.211948" y="128.200378" style="stroke: #000000"/>
     <use xlink:href="#m2017f9e15c" x="166.591169" y="220.855811" style="stroke: #000000"/>
     <use xlink:href="#m2017f9e15c" x="212.97039" y="286.295222" style="stroke: #000000"/>
     <use xlink:href="#m2017f9e15c" x="259.34961" y="286.295222" style="stroke: #000000"/>
     <use xlink:href="#m2017f9e15c" x="305.728831" y="220.855811" style="stroke: #000000"/>
     <use xlink:href="#m2017f9e15c" x="352.108052" y="128.200378" style="stroke: #000000"/>
     <use xlink:href="#m2017f9e15c" x="398.487273" y="62.760967" style="stroke: #000000"/>
    </g>
   </g>
   <g id="line2d_29">
    <path d="M 73.832727 73.953452 
L 76.432563 78.607435 
L 79.357379 84.341938 
L 82.282195 90.574008 
L 85.53199 98.040192 
L 89.106765 106.852595 
L 93.006519 117.099464 
L 97.231253 128.832362 
L 102.430925 143.979788 
L 109.255495 164.625335 
L 123.554595 208.102251 
L 128.754267 223.113774 
L 133.30398 235.563193 
L 137.203735 245.592029 
L 140.778509 254.175325 
L 144.028305 261.410586 
L 146.95312 267.417727 
L 149.877936 272.912384 
L 152.477772 277.341717 
L 155.077609 281.322821 
L 157.352465 284.424906 
L 159.627322 287.160141 
L 161.902179 289.519396 
L 163.852056 291.236361 
L 165.801933 292.667078 
L 167.75181 293.808038 
L 169.701687 294.656442 
L 171.326585 295.138443 
L 172.951482 295.415001 
L 174.57638 295.485645 
L 176.201278 295.350255 
L 177.826175 295.009063 
L 179.451073 294.462648 
L 181.075971 293.711941 
L 183.025848 292.543254 
L 184.975725 291.085113 
L 186.925602 289.341094 
L 188.875479 287.315476 
L 191.150336 284.603011 
L 193.425192 281.523101 
L 195.700049 278.086029 
L 198.299885 273.735375 
L 200.899722 268.952215 
L 203.824537 263.080213 
L 206.749353 256.719659 
L 209.999148 249.122149 
L 213.573923 240.180217 
L 217.473677 229.811091 
L 222.023391 217.03615 
L 227.223063 201.752094 
L 234.697592 179.020391 
L 246.396855 143.428045 
L 251.921507 127.383422 
L 256.47122 114.852791 
L 260.370975 104.739858 
L 263.945749 96.068463 
L 267.195545 88.7446 
L 270.12036 82.651299 
L 273.045176 77.064894 
L 275.645012 72.549725 
L 278.244848 68.479143 
L 280.519705 65.296085 
L 282.794562 62.477658 
L 285.069419 60.033268 
L 287.019296 58.242001 
L 288.969173 56.735946 
L 290.91905 55.518798 
L 292.868927 54.593542 
L 294.493825 54.047127 
L 296.118722 53.705934 
L 297.74362 53.570544 
L 299.368518 53.641189 
L 300.993415 53.917747 
L 302.618313 54.399747 
L 304.24321 55.086369 
L 306.193088 56.178744 
L 308.142965 57.561393 
L 310.092842 59.230924 
L 312.042719 61.183242 
L 314.317576 63.811931 
L 316.592432 66.810206 
L 318.867289 70.168055 
L 321.467125 74.431463 
L 324.066962 79.131254 
L 326.991777 84.914552 
L 329.916593 91.192258 
L 333.166388 98.705138 
L 336.741163 107.563664 
L 340.640917 117.854155 
L 344.865651 129.625949 
L 350.065324 144.808675 
L 356.889894 165.478575 
L 370.864013 207.965188 
L 376.063686 222.983107 
L 380.613399 235.439996 
L 384.513153 245.476548 
L 388.087928 254.067912 
L 391.337723 261.311279 
L 394.262539 267.326294 
L 397.187355 272.82933 
L 398.487273 275.102738 
L 398.487273 275.102738 
" clip-path="url(#p337beb086b)" style="fill: none; stroke: #d62728; stroke-width: 1.5; stroke-linecap: square"/>
   </g>
   <g id="line2d_30">
    <g clip-path="url(#p337beb086b)">
     <use xlink:href="#m2017f9e15c" x="73.832727" y="74.010256" style="stroke: #000000"/>
     <use xlink:href="#m2017f9e15c" x="120.211948" y="198.115313" style="stroke: #000000"/>
     <use xlink:href="#m2017f9e15c" x="166.591169" y="293.189947" style="stroke: #000000"/>
     <use xlink:href="#m2017f9e15c" x="212.97039" y="241.781907" style="stroke: #000000"/>
     <use xlink:href="#m2017f9e15c" x="259.34961" y="107.274282" style="stroke: #000000"/>
     <use xlink:href="#m2017f9e15c" x="305.728831" y="55.866242" style="stroke: #000000"/>
     <use xlink:href="#m2017f9e15c" x="352.108052" y="150.940876" style="stroke: #000000"/>
     <use xlink:href="#m2017f9e15c" x="398.487273" y="275.045933" style="stroke: #000000"/>
    </g>
   </g>
   <g id="patch_3">
    <path d="M 57.6 307.584 
L 57.6 41.472 
" style="fill: none; stroke: #000000; stroke-width: 0.8; stroke-linejoin: miter; stroke-linecap: square"/>
   </g>
   <g id="patch_4">
    <path d="M 414.72 307.584 
L 414.72 41.472 
" style="fill: none; stroke: #000000; stroke-width: 0.8; stroke-linejoin: miter; stroke-linecap: square"/>
   </g>
   <g id="patch_5">
    <path d="M 57.6 307.584 
L 414.72 307.584 
" style="fill: none; stroke: #000000; stroke-width: 0.8; stroke-linejoin: miter; stroke-linecap: square"/>
   </g>
   <g id="patch_6">
    <path d="M 57.6 41.472 
L 414.72 41.472 
" style="fill: none; stroke: #000000; stroke-width: 0.8; stroke-linejoin: miter; stroke-linecap: square"/>
   </g>
  </g>
 </g>
 <defs>
  <clipPath id="p337beb086b">
   <rect x="57.6" y="41.472" width="357.12" height="266.112"/>
  </clipPath>
 </defs>
</svg>
